<?xml version="1.0" encoding="utf-8"?>
<!-- Generator: Adobe Illustrator 16.0.0, SVG Export Plug-In . SVG Version: 6.00 Build 0)  -->
<!DOCTYPE svg PUBLIC "-//W3C//DTD SVG 1.1//EN" "http://www.w3.org/Graphics/SVG/1.1/DTD/svg11.dtd">
<svg version="1.1" xmlns="http://www.w3.org/2000/svg" xmlns:xlink="http://www.w3.org/1999/xlink" x="0px" y="0px" width="600px"
	 height="30px" viewBox="0 0 600 30" enable-background="new 0 0 600 30" xml:space="preserve">
<g id="Layer_1">
	<path d="M12.26,27.333c0,0.759,0.37,1.138,1.111,1.138c0.741,0,1.111-0.379,1.111-1.138V17.087h1.138v10.246
		c0,0.759,0.371,1.138,1.111,1.138c0.74,0,1.111-0.379,1.111-1.138V9.877h0.542v6.289c0,0.396,0.136,0.688,0.407,0.867
		s0.551,0.181,0.84,0c0.289-0.182,0.434-0.471,0.434-0.867V9.39c0-0.723-0.244-1.283-0.732-1.681S18.167,7.112,17.3,7.112h-4.445
		c-0.831,0-1.509,0.181-2.033,0.542c-0.524,0.362-0.786,0.922-0.786,1.681v7.21c0,0.325,0.145,0.561,0.434,0.705
		c0.289,0.145,0.569,0.145,0.84,0s0.407-0.38,0.407-0.705V9.877h0.542L12.26,27.333L12.26,27.333z"/>
	<path d="M12.694,3.833c0,0.633,0.226,1.175,0.678,1.626c0.452,0.452,0.994,0.678,1.626,0.678s1.175-0.226,1.626-0.678
		c0.452-0.451,0.678-1.003,0.678-1.653c0-0.614-0.226-1.147-0.678-1.599s-0.994-0.678-1.626-0.678s-1.174,0.226-1.626,0.678
		C12.92,2.658,12.694,3.201,12.694,3.833z"/>
	
		<linearGradient id="SVGID_1_" gradientUnits="userSpaceOnUse" x1="112.9136" y1="-268.2847" x2="109.3388" y2="-268.2847" gradientTransform="matrix(1 0 0 -1 -96 -260)">
		<stop  offset="0" style="stop-color:#FF0000"/>
		<stop  offset="0.1156" style="stop-color:#E30000"/>
		<stop  offset="0.2871" style="stop-color:#C00000"/>
		<stop  offset="0.4614" style="stop-color:#A50000"/>
		<stop  offset="0.6372" style="stop-color:#910000"/>
		<stop  offset="0.8155" style="stop-color:#860000"/>
		<stop  offset="1" style="stop-color:#820000"/>
	</linearGradient>
	<path fill="url(#SVGID_1_)" d="M13.416,8.136c0,0-0.038-1.494,1.792-1.456c1.83,0.037,1.699,1.754,1.699,1.754l0.112,1.363
		c0,0-2.239-0.411-3.808,0.093L13.416,8.136z"/>
	
		<linearGradient id="SVGID_2_" gradientUnits="userSpaceOnUse" x1="107.4512" y1="-278.8984" x2="113.9752" y2="-269.3344" gradientTransform="matrix(1 0 0 -1 -96 -260)">
		<stop  offset="0" style="stop-color:#FF0000"/>
		<stop  offset="0.3976" style="stop-color:#FD0000"/>
		<stop  offset="0.5573" style="stop-color:#F60000"/>
		<stop  offset="0.6742" style="stop-color:#EA0000"/>
		<stop  offset="0.7703" style="stop-color:#D80000"/>
		<stop  offset="0.8535" style="stop-color:#C20000"/>
		<stop  offset="0.9268" style="stop-color:#A60000"/>
		<stop  offset="0.9932" style="stop-color:#860000"/>
		<stop  offset="1" style="stop-color:#820000"/>
	</linearGradient>
	<path fill="url(#SVGID_2_)" d="M16.664,7.354c0,0,0.831,1.644-0.831,4.094c-1.577,2.326-5.038,6.604-5.038,6.604l1.771,2.542
		c0,0,4.607-5.833,5.401-7.489c0.794-1.656,0.545-2.564,0.272-3.063C17.966,9.543,16.664,7.354,16.664,7.354z"/>
	<g>
		<path fill="#FF0000" d="M16.862,8.468c-0.019-0.001-0.033-0.018-0.032-0.036l0,0c0-0.001,0.002-0.025,0.002-0.072l0,0
			c0-0.161-0.04-0.56-0.203-0.934l0,0c-0.221-0.365-0.631-0.695-1.422-0.713l0,0c-0.022,0-0.044,0-0.066,0l0,0
			c-0.837,0.001-1.177,0.22-1.392,0.56l0,0c-0.214,0.341-0.244,0.803-0.244,0.853l0,0c0,0.004,0,0.006,0,0.006l0,0
			c0,0.019-0.014,0.034-0.033,0.035l0,0c-0.019,0.001-0.035-0.014-0.036-0.033l0,0c0,0,0-0.003,0-0.008l0,0
			c0-0.057,0.029-0.53,0.255-0.889l0,0c0.225-0.358,0.595-0.593,1.449-0.592l0,0c0.022,0,0.045,0,0.067,0.001l0,0
			c0.81,0.016,1.25,0.361,1.479,0.745l0,0c0.191,0.392,0.214,0.8,0.214,0.968l0,0c0,0.049-0.002,0.076-0.002,0.077l0,0
			c-0.001,0.018-0.016,0.031-0.034,0.031l0,0C16.864,8.468,16.863,8.468,16.862,8.468L16.862,8.468z"/>
	</g>
	<g>
		<path fill="#FF0000" d="M16.685,7.388c-0.009-0.017-0.029-0.022-0.046-0.015c-0.017,0.01-0.023,0.029-0.014,0.047l0,0
			c0,0,0.012,0.022,0.032,0.07c0.058,0.144,0.176,0.499,0.176,1.027c0,0.697-0.205,1.696-1.028,2.91
			c-0.788,1.162-2.047,2.812-3.109,4.173c-0.531,0.68-1.013,1.287-1.362,1.726c-0.313,0.393-0.521,0.647-0.56,0.696l0.041,0.056
			c0.002-0.001,0.005-0.003,0.007-0.005c0,0,3.46-4.277,5.04-6.606c0.83-1.224,1.04-2.237,1.04-2.948
			C16.901,7.8,16.687,7.392,16.685,7.388z"/>
	</g>
	
		<linearGradient id="SVGID_3_" gradientUnits="userSpaceOnUse" x1="108.1738" y1="-269.0757" x2="114.9064" y2="-278.44" gradientTransform="matrix(1 0 0 -1 -96 -260)">
		<stop  offset="0" style="stop-color:#FF0000"/>
		<stop  offset="0.2746" style="stop-color:#DE0000"/>
		<stop  offset="0.5505" style="stop-color:#C50000"/>
		<stop  offset="0.8006" style="stop-color:#B50000"/>
		<stop  offset="1" style="stop-color:#B00000"/>
	</linearGradient>
	<path fill="url(#SVGID_3_)" d="M13.722,7.188c0,0-0.965,1.74,0.696,4.19c1.577,2.326,5.038,6.604,5.038,6.604l-1.771,2.541
		c0,0-4.606-5.832-5.401-7.488c-0.794-1.656-0.545-2.564-0.272-3.063C12.285,9.473,13.722,7.188,13.722,7.188z"/>
	<g>
		<path fill="#FF0000" d="M19.437,18.01l0.04-0.056c-0.035-0.044-0.242-0.3-0.56-0.697c-1.047-1.312-3.29-4.154-4.471-5.897
			c-0.765-1.128-0.969-2.088-0.969-2.795c0-0.41,0.069-0.735,0.138-0.957c0.034-0.111,0.068-0.196,0.094-0.254
			c0.026-0.057,0.042-0.085,0.042-0.085c0.009-0.017,0.004-0.037-0.013-0.047c-0.016-0.009-0.037-0.004-0.046,0.013
			c-0.002,0.003-0.283,0.494-0.283,1.33c0,0.72,0.208,1.695,0.98,2.833c1.579,2.329,5.04,6.606,5.04,6.606
			C19.432,18.007,19.435,18.009,19.437,18.01z"/>
	</g>
	<g>
		<path d="M41.038,6.797c0.327,0.003,0.607-0.111,0.843-0.342c0.236-0.231,0.355-0.515,0.358-0.85
			c0.003-0.317-0.11-0.593-0.341-0.829c-0.231-0.236-0.51-0.355-0.836-0.358c-0.327-0.003-0.607,0.111-0.843,0.342
			c-0.235,0.231-0.354,0.509-0.358,0.837c-0.003,0.325,0.111,0.607,0.341,0.842C40.432,6.675,40.711,6.794,41.038,6.797z"/>
		<path d="M56.971,26.068l-8.425-9.912c0.714-0.9,1.251-1.934,1.582-3.065c1.395-4.764-1.348-9.775-6.112-11.168
			c-0.827-0.242-1.678-0.365-2.532-0.365c-1.907,0-3.807,0.626-5.348,1.765c-1.594,1.177-2.731,2.806-3.289,4.713
			c-1.394,4.765,1.348,9.774,6.113,11.169c0.826,0.24,1.678,0.363,2.532,0.363c1.587,0,3.168-0.437,4.543-1.237l8.405,9.892
			c0.186,0.217,0.536,0.226,0.783,0.016l1.639-1.393C57.107,26.634,57.157,26.289,56.971,26.068z M34.469,8.51
			c0.906-3.099,3.791-5.262,7.015-5.262c0.692,0,1.385,0.099,2.057,0.296c3.871,1.132,6.098,5.202,4.965,9.072
			c-0.82,2.805-3.263,4.844-6.11,5.204c0.001-0.022,0.004-0.041,0.005-0.064l0.088-9.013l0.28,0.003l-0.032,3.247
			c-0.002,0.205,0.066,0.354,0.206,0.45c0.14,0.095,0.284,0.096,0.434,0.004c0.15-0.092,0.227-0.241,0.228-0.446l0.035-3.499
			c0.003-0.373-0.119-0.664-0.37-0.872c-0.25-0.207-0.599-0.313-1.047-0.317L39.928,7.29c-0.429-0.004-0.78,0.085-1.052,0.27
			c-0.272,0.183-0.411,0.471-0.414,0.863l-0.036,3.722c-0.002,0.168,0.071,0.29,0.22,0.367c0.149,0.076,0.293,0.077,0.434,0.004
			c0.141-0.073,0.212-0.194,0.213-0.363l0.034-3.441l0.28,0.002l-0.087,8.89c-0.028-0.008-0.057-0.016-0.084-0.023
			C35.564,16.45,33.337,12.379,34.469,8.51z M41.26,17.874c-0.201-0.007-0.402-0.021-0.602-0.046
			c0.003-0.029,0.007-0.059,0.007-0.09l0.052-5.289l0.587,0.005l-0.051,5.29C41.252,17.79,41.255,17.833,41.26,17.874z"/>
	</g>
	<path d="M81.309,4.173c0,1.097,0.392,2.038,1.175,2.821c0.784,0.783,1.724,1.175,2.821,1.175c1.097,0,2.037-0.392,2.821-1.175
		c0.784-0.784,1.175-1.74,1.175-2.868c0-1.066-0.392-1.99-1.175-2.773c-0.784-0.784-1.724-1.176-2.821-1.176
		c-1.097,0-2.037,0.392-2.821,1.176C81.701,2.136,81.309,3.076,81.309,4.173z"/>
	<g>
		<g>
			<defs>
				<rect id="SVGID_4_" x="59.093" y="-1.273" width="30.494" height="30.494"/>
			</defs>
			<clipPath id="SVGID_5_">
				<use xlink:href="#SVGID_4_"  overflow="visible"/>
			</clipPath>
			<g clip-path="url(#SVGID_5_)">
				<path d="M80.599,14.111v30.276c0,1.316,0.643,1.975,1.928,1.975c1.285,0,1.928-0.657,1.928-1.975V26.616h1.975v17.771
					c0,1.316,0.643,1.975,1.927,1.975c1.285,0,1.928-0.657,1.928-1.975V14.111h0.94v10.907c0,0.689,0.235,1.191,0.705,1.506
					c0.47,0.313,0.956,0.312,1.458,0c0.502-0.313,0.752-0.815,0.752-1.506V13.264c0-1.253-0.423-2.225-1.269-2.915
					c-0.847-0.689-2.022-1.034-3.526-1.034h-7.71c-1.442,0-2.617,0.313-3.526,0.94l-5.282,9.361l-1.344,2.269
					c0,0,0.588,2.689,2.521,1.01L80.599,14.111z"/>
				<path d="M88.356,46.412c-1.312,0-1.978-0.682-1.978-2.025V26.666h-1.875v17.721c0,1.344-0.665,2.025-1.978,2.025
					c-1.312,0-1.978-0.682-1.978-2.025V14.26l-6.511,8.667l-0.004,0.005c-0.431,0.373-0.833,0.563-1.194,0.563l0,0
					c-0.435,0-0.817-0.279-1.104-0.808c-0.213-0.393-0.299-0.776-0.303-0.793l-0.004-0.02l0.01-0.018l1.344-2.27l5.287-9.37
					l0.009-0.006c0.914-0.63,2.109-0.949,3.555-0.949h7.71c1.509,0,2.706,0.352,3.558,1.045c0.854,0.697,1.288,1.69,1.288,2.954
					v11.753c0,0.705-0.261,1.225-0.776,1.547c-0.516,0.321-1.027,0.321-1.512,0c-0.482-0.322-0.727-0.844-0.727-1.547V14.161h-0.84
					v30.226C90.334,45.73,89.668,46.412,88.356,46.412z M84.404,26.566h2.075v17.819c0,1.296,0.614,1.927,1.877,1.927
					c1.264,0,1.878-0.631,1.878-1.927V14.061h1.04v10.957c0,0.67,0.23,1.162,0.683,1.463c0.452,0.302,0.92,0.302,1.403,0
					c0.483-0.303,0.729-0.795,0.729-1.463V13.264c0-1.232-0.421-2.2-1.251-2.876c-0.833-0.679-2.009-1.023-3.494-1.023h-7.71
					c-1.42,0-2.593,0.311-3.488,0.925l-5.276,9.351l-1.334,2.252c0.043,0.176,0.399,1.504,1.305,1.504l0,0
					c0.335,0,0.714-0.182,1.125-0.537l6.684-8.897v30.427c0,1.295,0.614,1.926,1.877,1.926c1.264,0,1.877-0.631,1.877-1.926V26.566
					L84.404,26.566z"/>
			</g>
		</g>
	</g>
	<path d="M74.356,15.87l-2.75-2.483c0.12-0.162,0.205-0.337,0.242-0.507l0.005-0.033c0.087-1.061,0.013-1.127-0.073-1.204
		l-5.797-5.235c-0.169-0.153-0.432-0.14-0.585,0.03l-0.216,0.239L64.644,6.19l0.104-0.116c0.354-0.392,0.427-0.843,0.173-1.073
		c-0.254-0.229-0.695-0.111-1.049,0.281l-1.337,1.48c-0.354,0.392-0.426,0.843-0.173,1.072c0.255,0.229,0.696,0.111,1.05-0.281
		l0.104-0.116l0.538,0.486l-0.216,0.239c-0.153,0.169-0.139,0.432,0.03,0.585l5.798,5.235c0.253,0.229,1.228-0.055,1.237-0.059
		c0.166-0.055,0.332-0.157,0.48-0.292l2.75,2.484c0.068,0.061,0.173,0.055,0.234-0.014C74.43,16.037,74.424,15.932,74.356,15.87z
		 M71.4,12.806c-0.064,0.26-0.402,0.565-0.652,0.647c-0.264,0.088-0.655,0.131-0.792,0.124l-5.692-5.141l0.215-0.238
		c0.153-0.169,0.14-0.433-0.03-0.586L63.48,6.737l-0.438,0.485c-0.136,0.151-0.264,0.21-0.331,0.228
		c0.01-0.068,0.056-0.202,0.192-0.353l1.337-1.48c0.136-0.151,0.264-0.211,0.331-0.227c-0.009,0.067-0.056,0.201-0.192,0.352
		l-0.438,0.484l0.969,0.875c0.17,0.153,0.432,0.14,0.585-0.03l0.216-0.239l0.824,0.745c-0.008,0.006-0.016,0.009-0.022,0.017
		l-0.901,0.998c-0.061,0.068-0.056,0.172,0.012,0.234s0.172,0.056,0.234-0.012l0.901-0.999c0.006-0.007,0.009-0.016,0.014-0.024
		l0.234,0.211C67,8.009,66.992,8.012,66.985,8.02l-0.679,0.752c-0.062,0.068-0.056,0.172,0.012,0.234
		c0.068,0.062,0.173,0.056,0.235-0.012l0.679-0.752c0.007-0.007,0.01-0.016,0.014-0.024l0.234,0.211
		c-0.007,0.005-0.016,0.009-0.022,0.016l-0.902,0.999c-0.061,0.068-0.056,0.172,0.012,0.234c0.068,0.062,0.173,0.056,0.234-0.012
		l0.901-0.998c0.007-0.008,0.01-0.017,0.015-0.025l0.234,0.211c-0.008,0.006-0.016,0.009-0.023,0.017l-0.282,0.312
		c-0.015,0.011-0.031,0.021-0.044,0.036l-0.728,0.8c-0.088,0.098-0.104,0.23-0.031,0.295l2.651,2.454l0.003,0.002l0.114,0.105
		c0.004,0.004,0.01,0.004,0.014,0.007l0.51,0.441c0,0,0.423-0.031,0.723-0.321c0.358-0.348,0.305-0.809,0.305-0.809l-0.499-0.469
		c-0.001-0.001-0.001-0.003-0.002-0.004l-0.114-0.104L68.014,9.27l0.16-0.178c0.006-0.007,0.01-0.016,0.015-0.024l3.202,2.892
		C71.49,12.27,71.497,12.417,71.4,12.806z M70.241,12.829c0.045,0.042,0.048,0.112,0.006,0.158
		c-0.022,0.023-0.052,0.035-0.082,0.035c-0.027,0-0.054-0.01-0.076-0.03l-2.567-2.387c-0.045-0.042-0.047-0.113-0.006-0.157
		c0.042-0.045,0.113-0.048,0.158-0.006L70.241,12.829z"/>
	<path fill="#FFFFFF" d="M78.642,23.854c-0.585-0.521-0.466-0.828-0.228-1.44c0.148-0.381,0.373-0.957,0.569-1.906
		c0.017-0.08,0.032-0.159,0.045-0.237c-0.089-0.152-0.196-0.291-0.322-0.451c-0.183-0.233-0.389-0.498-0.619-0.9
		c-0.618-1.082-0.006-1.949,0.403-2.256l0.187-0.141l0.152,0.176c0.045,0.053,1.042,1.234,0.719,3.486
		c0.138,0.289,0.234,0.649,0.266,1.2l-0.499,0.029c-0.002-0.035-0.004-0.069-0.007-0.103c-0.157,0.588-0.313,0.99-0.428,1.283
		c-0.227,0.584-0.231,0.596,0.094,0.885L78.642,23.854z M78.604,17.249c-0.057,0.069-0.118,0.159-0.168,0.263
		c-0.175,0.363-0.146,0.752,0.085,1.156c0.211,0.371,0.407,0.621,0.579,0.841c0.002,0.003,0.005,0.007,0.007,0.009
		C79.152,18.361,78.812,17.602,78.604,17.249z"/>
	
		<rect x="75.135" y="15.172" transform="matrix(-0.7017 -0.7125 0.7125 -0.7017 120.335 81.2267)" fill="#FFFFFF" width="4.074" height="0.501"/>
	
		<linearGradient id="SVGID_6_" gradientUnits="userSpaceOnUse" x1="200.7783" y1="-261.8359" x2="200.7783" y2="-289.0122" gradientTransform="matrix(1 0 0 -1 -96 -260)">
		<stop  offset="0.0939" style="stop-color:#FF0000"/>
		<stop  offset="0.0946" style="stop-color:#FF0500"/>
		<stop  offset="0.1022" style="stop-color:#FF3000"/>
		<stop  offset="0.1096" style="stop-color:#FF5200"/>
		<stop  offset="0.1165" style="stop-color:#FF6B00"/>
		<stop  offset="0.1229" style="stop-color:#FF7A00"/>
		<stop  offset="0.1281" style="stop-color:#FF7F00"/>
		<stop  offset="0.2079" style="stop-color:#FF7F00"/>
		<stop  offset="0.323" style="stop-color:#FF8B00"/>
		<stop  offset="0.3297" style="stop-color:#FFC000"/>
		<stop  offset="0.3347" style="stop-color:#FFE100"/>
		<stop  offset="0.3375" style="stop-color:#FFED00"/>
		<stop  offset="0.5024" style="stop-color:#FFED00"/>
		<stop  offset="0.5065" style="stop-color:#6EC400"/>
		<stop  offset="0.5095" style="stop-color:#0CA900"/>
		<stop  offset="0.6661" style="stop-color:#0CA900"/>
		<stop  offset="0.668" style="stop-color:#0BA30E"/>
		<stop  offset="0.6715" style="stop-color:#099432"/>
		<stop  offset="0.6762" style="stop-color:#057B6C"/>
		<stop  offset="0.6819" style="stop-color:#015ABB"/>
		<stop  offset="0.6827" style="stop-color:#0055C6"/>
		<stop  offset="0.8136" style="stop-color:#0055C6"/>
		<stop  offset="0.8296" style="stop-color:#B210D2"/>
	</linearGradient>
	<path fill="url(#SVGID_6_)" d="M104.249,9.766v6.835c0,0.399-0.146,0.691-0.438,0.875c-0.292,0.182-0.574,0.182-0.848,0
		c-0.273-0.184-0.41-0.476-0.41-0.875v-6.344h-0.547v17.606c0,0.766-0.374,1.147-1.121,1.147c-0.747,0-1.121-0.383-1.121-1.147
		V17.529h-1.148v10.335c0,0.766-0.374,1.147-1.121,1.147c-0.748,0-1.121-0.383-1.121-1.147V10.258h-0.547v6.727
		c0,0.328-0.137,0.563-0.41,0.711c-0.273,0.146-0.556,0.146-0.847,0c-0.292-0.146-0.438-0.383-0.438-0.711V9.711
		c0-0.766,0.264-1.33,0.792-1.695c0.529-0.364,1.212-0.547,2.051-0.547h4.483c0.875,0,1.559,0.201,2.051,0.602
		C104.003,8.472,104.249,9.036,104.249,9.766z M99.136,6.485c0.638,0,1.185-0.229,1.641-0.684c0.456-0.456,0.683-1.012,0.683-1.668
		c0-0.62-0.228-1.157-0.683-1.613s-1.002-0.684-1.641-0.684c-0.638,0-1.185,0.228-1.64,0.684s-0.684,1.002-0.684,1.641
		c0,0.638,0.228,1.185,0.684,1.641C97.952,6.257,98.499,6.485,99.136,6.485z M114.684,8.07c-0.492-0.4-1.176-0.602-2.051-0.602
		h-4.483c-0.838,0-1.522,0.183-2.051,0.547c-0.528,0.365-0.792,0.93-0.792,1.695v7.272c0,0.328,0.146,0.563,0.438,0.711
		c0.292,0.146,0.574,0.146,0.847,0c0.273-0.146,0.41-0.383,0.41-0.711v-6.727h0.547v17.605c0,0.767,0.374,1.148,1.121,1.148
		s1.121-0.383,1.121-1.148V17.529h1.148v10.335c0,0.766,0.374,1.147,1.121,1.147s1.121-0.383,1.121-1.147V10.258h0.547v6.344
		c0,0.399,0.137,0.691,0.41,0.875c0.273,0.182,0.556,0.182,0.848,0c0.292-0.184,0.438-0.476,0.438-0.875V9.766
		C115.422,9.036,115.176,8.472,114.684,8.07z M110.309,6.485c0.638,0,1.185-0.229,1.641-0.684c0.456-0.456,0.683-1.012,0.683-1.668
		c0-0.62-0.228-1.157-0.683-1.613c-0.456-0.456-1.002-0.684-1.641-0.684c-0.638,0-1.185,0.228-1.64,0.684
		c-0.456,0.456-0.684,1.002-0.684,1.641c0,0.638,0.228,1.185,0.684,1.641C109.125,6.257,109.671,6.485,110.309,6.485z"/>
	<circle cx="186.328" cy="11.8" r="1.983"/>
	<path d="M189.933,15.854c0,0-3.035,0.828-4.69-1.862c0,0-2.069-0.932-2.759,2.208c0,0-0.345,3.689-0.207,4
		c0,0,0.345,1.104,1.104,1.449c0,0,1.483,3.689-0.138,7.242l0.069,0.481c0,0,0.621,1.174,1.794,0.312c0,0,2.103-3.447,0.31-8.863
		l-0.069-3.104l0.38-1.655l3.173,1.104l0.965-0.655L189.933,15.854z"/>
	<g>
		
			<rect x="189.078" y="15.703" transform="matrix(-0.5024 0.8646 -0.8646 -0.5024 299.1735 -139.9092)" width="1.537" height="0.862"/>
		<path fill="#FFFFFF" d="M189.852,17.08l-0.82-0.477l0.817-1.403l0.82,0.478L189.852,17.08z M189.151,16.572l0.669,0.389
			l0.729-1.252l-0.669-0.389L189.151,16.572z"/>
	</g>
	<g>
		
			<rect x="189.343" y="16.168" transform="matrix(-0.7002 0.7139 -0.7139 -0.7002 336.0525 -106.9485)" width="2.276" height="1.829"/>
		<path fill="#FFFFFF" d="M190.34,18.591l-1.367-1.341l1.656-1.688l1.367,1.342L190.34,18.591z M189.097,17.249l1.242,1.219
			l1.533-1.562l-1.242-1.219L189.097,17.249z"/>
	</g>
	<g>
		<path d="M189.829,16.577c0,0-3.622,1.172-4.587-1.794c0,0-0.966-1-1.483,0.414c0,0,0.344,3.553,6.242,2.862
			C190.001,18.061,191.174,17.096,189.829,16.577z"/>
		<path fill="#FFFFFF" d="M188.563,18.193L188.563,18.193c-1.298,0-3.066-0.26-4.129-1.492c-0.638-0.739-0.715-1.469-0.718-1.5
			l-0.001-0.01l0.003-0.01c0.19-0.521,0.465-0.785,0.814-0.785c0.392,0,0.728,0.342,0.741,0.357l0.007,0.007l0.003,0.01
			c0.536,1.646,1.91,1.992,2.967,1.992l0,0c0.854,0,1.557-0.225,1.564-0.228l0.014-0.005l0.015,0.006
			c0.4,0.152,0.625,0.363,0.667,0.626c0.076,0.467-0.459,0.913-0.482,0.932l-0.01,0.009l-0.013,0.002
			C189.5,18.162,189.015,18.193,188.563,18.193z M183.804,15.203c0.012,0.088,0.116,0.771,0.7,1.445
			c0.575,0.664,1.746,1.455,4.06,1.457l0,0c0.445,0,0.922-0.029,1.42-0.088c0.07-0.062,0.504-0.457,0.442-0.843
			c-0.037-0.225-0.238-0.411-0.598-0.553c-0.108,0.032-0.778,0.226-1.576,0.226l0,0c-1.085,0-2.493-0.354-3.047-2.041
			c-0.049-0.048-0.346-0.323-0.672-0.323C184.226,14.484,183.98,14.726,183.804,15.203z"/>
	</g>
	<polygon points="207.609,29.298 206.89,25.068 206.562,25.087 206.562,6.66 207.197,6.66 207.197,6.047 204.998,6.047 
		204.998,6.66 205.674,6.66 205.674,25.109 205.24,25.109 204.733,29.171 204.099,29.171 204.099,29.721 206.213,29.721 
		208.032,29.721 208.032,29.298 	"/>
	<polygon points="207.657,2.536 207.112,1.246 206.668,1.246 206.309,0.739 206.245,0.739 206.245,0.226 205.97,0.226 205.97,0.739 
		205.907,0.739 205.484,1.268 204.998,1.31 204.701,2.536 204.194,2.536 204.194,3.001 207.937,3.001 207.937,2.536 	"/>
	<g>
		<line fill="none" x1="204.553" y1="3.044" x2="205.484" y2="5.983"/>
		<rect x="203.48" y="4.456" transform="matrix(-0.3019 -0.9533 0.9533 -0.3019 262.6193 201.3217)" width="3.083" height="0.1"/>
	</g>
	<g>
		<line fill="none" x1="207.704" y1="3.012" x2="206.752" y2="6.015"/>
		<rect x="207.181" y="2.939" transform="matrix(-0.953 -0.303 0.303 -0.953 403.3519 71.6065)" width="0.1" height="3.15"/>
	</g>
	<g>
		<line fill="none" x1="205.505" y1="3.044" x2="205.949" y2="5.983"/>
		<rect x="204.239" y="4.465" transform="matrix(-0.1493 -0.9888 0.9888 -0.1493 231.9767 208.6084)" width="2.973" height="0.1"/>
	</g>
	<g>
		<line fill="none" x1="206.604" y1="3.044" x2="206.309" y2="5.983"/>
		<rect x="206.398" y="3.037" transform="matrix(-0.9947 -0.1024 0.1024 -0.9947 411.349 30.1444)" width="0.1" height="2.954"/>
	</g>
	<path d="M133.25,22.585l0.883,1.062c0,0,0.253,0.337-0.094,0.905c-0.348,0.567-1.031,2.178-1.031,2.178l-0.168,0.474
		c0,0-0.389,2.566,1.652,0.673l1.652-3.473c0,0,0.389-0.788-0.158-1.241l-0.831-1.052L133.25,22.585z"/>
	<path d="M130.941,22.365c0,0,0.397,0.304,1.731,0.393v6.553c0,0-0.697,1.518-1.695,0.051L130.941,22.365z"/>
	<polygon points="142.325,29.526 141.609,25.317 141.283,25.336 141.283,7 141.915,7 141.915,6.39 139.726,6.39 139.726,7 
		140.399,7 140.399,25.359 139.968,25.359 139.463,29.399 138.832,29.399 138.832,29.947 140.936,29.947 142.746,29.947 
		142.746,29.526 	"/>
	<polygon points="142.373,2.896 141.831,1.613 141.389,1.613 141.031,1.108 140.968,1.108 140.968,0.597 140.694,0.597 
		140.694,1.108 140.631,1.108 140.21,1.634 139.726,1.676 139.432,2.896 138.927,2.896 138.927,3.359 142.651,3.359 142.651,2.896 	
		"/>
	<g>
		<line x1="139.284" y1="3.401" x2="140.21" y2="6.327"/>
		<line x1="139.284" y1="3.401" x2="140.21" y2="6.327"/>
		<rect x="138.213" y="4.814" transform="matrix(0.3018 0.9534 -0.9534 0.3018 102.2127 -129.8359)" width="3.068" height="0.099"/>
		<rect x="138.213" y="4.814" transform="matrix(0.3018 0.9534 -0.9534 0.3018 102.2127 -129.8359)" width="3.068" height="0.099"/>
	</g>
	<g>
		<line x1="142.419" y1="3.37" x2="141.473" y2="6.358"/>
		<line x1="142.419" y1="3.37" x2="141.473" y2="6.358"/>
		<rect x="141.896" y="3.297" transform="matrix(0.954 0.3 -0.3 0.954 7.9951 -42.3534)" width="0.099" height="3.135"/>
		<rect x="141.896" y="3.297" transform="matrix(0.954 0.3 -0.3 0.954 7.9951 -42.3534)" width="0.099" height="3.135"/>
	</g>
	<g>
		<line x1="140.231" y1="3.401" x2="140.673" y2="6.327"/>
		<line x1="140.231" y1="3.401" x2="140.673" y2="6.327"/>
		<rect x="138.973" y="4.814" transform="matrix(0.1494 0.9888 -0.9888 0.1494 124.2795 -134.7387)" width="2.958" height="0.099"/>
		<rect x="138.973" y="4.814" transform="matrix(0.1494 0.9888 -0.9888 0.1494 124.2795 -134.7387)" width="2.958" height="0.099"/>
	</g>
	<g>
		<line x1="141.325" y1="3.401" x2="141.031" y2="6.327"/>
		<line x1="141.325" y1="3.401" x2="141.031" y2="6.327"/>
		<rect x="141.128" y="3.394" transform="matrix(0.9946 0.1034 -0.1034 0.9946 1.2597 -14.5722)" width="0.099" height="2.94"/>
		<rect x="141.128" y="3.394" transform="matrix(0.9946 0.1034 -0.1034 0.9946 1.2597 -14.5722)" width="0.099" height="2.94"/>
	</g>
	<path d="M138.79,10.903c0,0-0.757,3.093-4.755,2.546c0,0-1.705-0.073-1.494-0.01c0,0-1.873,0.116-2.272,0.474l-2.041,1.704
		c0,0-0.653,0.4,0.021,1.011c0.674,0.61,1.463,1.463,1.463,1.463s1.146,0.831,0.873-0.559l-1.031-1.157c0,0-0.378-0.189-0.042-0.379
		l0.631-0.504c0,0,0.121,1.071,0.801,1.165c0.011,0.467,0.021,0.935,0.032,1.401c-0.055,0.103-0.11,0.206-0.165,0.309
		c-0.548,1.025-1.096,2.051-1.645,3.076c0,0,0.596,0.318,1.394,0.592c0.608,0.208,1.351,0.329,2.021,0.323c0,0-0.011,0.04,0,0
		c1.54-0.005,3.354-0.976,3.354-0.976l-1.809-3.385l0.034-1.489c0.26-0.083,0.496-0.318,0.633-0.826c0,0,0.126-0.695-0.084-0.906
		l-0.063-0.147c0,0,1.283,0.021,1.641-0.147c0,0,2.083-0.421,3.03-2.02c0,0,0.484-0.905,0.589-1.221
		C139.905,11.24,139.884,9.851,138.79,10.903z"/>
	<ellipse cx="132.547" cy="11.028" rx="1.809" ry="1.867"/>
	<path fill="#898888" d="M198.25,22.585l0.883,1.062c0,0,0.253,0.337-0.094,0.905c-0.348,0.567-1.031,2.178-1.031,2.178
		l-0.168,0.474c0,0-0.389,2.566,1.652,0.673l1.652-3.473c0,0,0.389-0.788-0.158-1.241l-0.831-1.052L198.25,22.585z"/>
	<path fill="#898888" d="M195.941,22.365c0,0,0.397,0.304,1.731,0.393v6.553c0,0-0.697,1.518-1.695,0.051L195.941,22.365z"/>
	<path fill="#898888" d="M203.79,10.903c0,0-0.757,3.093-4.755,2.546c0,0-1.705-0.073-1.494-0.01c0,0-1.873,0.116-2.272,0.474
		l-2.041,1.704c0,0-0.653,0.4,0.021,1.011c0.674,0.61,1.463,1.463,1.463,1.463s1.146,0.831,0.873-0.559l-1.031-1.157
		c0,0-0.378-0.189-0.042-0.379l0.631-0.504c0,0,0.121,1.071,0.801,1.165c0.011,0.467,0.021,0.935,0.032,1.401
		c-0.055,0.103-0.11,0.206-0.165,0.309c-0.548,1.025-1.096,2.051-1.645,3.076c0,0,0.596,0.318,1.394,0.592
		c0.608,0.208,1.351,0.329,2.021,0.323c0,0-0.011,0.04,0,0c1.54-0.005,3.354-0.976,3.354-0.976l-1.809-3.385l0.034-1.489
		c0.26-0.083,0.496-0.318,0.633-0.826c0,0,0.126-0.695-0.084-0.906l-0.063-0.147c0,0,1.283,0.021,1.641-0.147
		c0,0,2.083-0.421,3.03-2.02c0,0,0.484-0.905,0.589-1.221C204.905,11.24,204.884,9.851,203.79,10.903z"/>
	<ellipse fill="#898888" cx="197.547" cy="11.028" rx="1.809" ry="1.867"/>
	<g>
		<circle fill="#0E0F0F" cx="223.351" cy="3.919" r="2.688"/>
		<path fill="#0E0F0F" d="M234.169,8.436c-0.798-1.524-1.22-3.117-2.641-3.117c-0.5,0-0.779,0.204-0.965,0.535l-4.656,1.758
			c-1.318-0.822-3.277-0.414-3.763,1.332c-1.375,1.488-3.096,2.584-5.043,3.216c-1.935,0.63-1.106,3.692,0.844,3.058
			c1.573-0.512,2.99-1.236,4.263-2.162c0.148,1.556,0.394,3.097,0.738,4.64c-2.151,3.017-3.104,6.332-2.512,10.153
			c0.312,2.016,3.367,1.156,3.056-0.843c-0.411-2.659,0.345-5.089,1.819-7.214c0.044,0,0.087,0.002,0.131,0
			c0.575,2.636,1.233,5.249,1.968,7.846c0.556,1.964,3.615,1.129,3.056-0.843c-0.858-3.032-1.617-6.091-2.253-9.178
			c0.07-0.354,0.068-0.745-0.028-1.166c-0.048-0.208-0.089-0.415-0.131-0.621l-1.109-6.969c-0.185-0.47-0.48-0.841-0.836-1.112
			l4.338-1.639c-0.238,0.622-0.312,1.523-0.746,2.391c-0.745,1.491,0.407,3.048,1.829,3.048
			C232.949,11.551,234.915,9.858,234.169,8.436z"/>
		<path fill="#0E0F0F" d="M229.7,4.741c0.322,0.355,1.085,0.578,1.085,0.578s0.137-0.386,0.3-0.622
			c0.164-0.237-0.29-0.463-0.386-0.705c-0.095-0.241-0.368-0.037-0.595-0.151c-0.226-0.114-0.391,0.122-0.663,0.327
			C229.169,4.373,229.378,4.387,229.7,4.741z"/>
		<path fill="#0E0F0F" d="M231.714,5.201l0.863-0.458c0,0,0.203-0.152,0.406-0.304c0.204-0.153,0-0.406,0-0.406l-0.253-0.305
			c0,0-0.153-0.254-0.254-0.407c-0.102-0.153-0.254,0-0.254,0l-0.457,0.152l-0.254,0.355l-0.152,0.356l0.203,0.66L231.714,5.201z"/>
	</g>
	<path d="M252.108,8.888c0,0.784,0.28,1.457,0.84,2.017c0.561,0.56,1.233,0.839,2.017,0.839s1.457-0.279,2.017-0.839
		c0.56-0.561,0.84-1.244,0.84-2.051c0-0.762-0.28-1.423-0.84-1.983s-1.232-0.84-2.017-0.84s-1.457,0.28-2.017,0.84
		C252.389,7.432,252.108,8.104,252.108,8.888z"/>
	<g>
		<defs>
			<rect id="SVGID_7_" x="240.862" y="5.188" width="27.677" height="18.973"/>
		</defs>
		<clipPath id="SVGID_8_">
			<use xlink:href="#SVGID_7_"  overflow="visible"/>
		</clipPath>
		<path clip-path="url(#SVGID_8_)" d="M251.571,38.028c0,0.94,0.459,1.412,1.377,1.412c0.919,0,1.378-0.472,1.378-1.412V25.323
			h1.412v12.705c0,0.94,0.459,1.412,1.378,1.412c0.918,0,1.378-0.472,1.378-1.412V16.383h0.672v7.798
			c0,0.493,0.168,0.851,0.504,1.075s0.683,0.225,1.042,0c0.358-0.225,0.538-0.582,0.538-1.075v-8.402
			c0-0.896-0.302-1.591-0.908-2.084c-0.605-0.492-1.445-0.739-2.521-0.739h-5.512c-1.03,0-1.871,0.224-2.521,0.671
			c-0.65,0.449-0.975,1.143-0.975,2.084v8.941c0,0.403,0.179,0.694,0.538,0.873c0.358,0.18,0.706,0.18,1.042,0
			c0.336-0.179,0.504-0.47,0.504-0.873v-8.27h0.672V38.028z"/>
	</g>
	<path fill="#3E3E49" d="M269.351,24.525h-28.184V5.047h28.184V24.525z M241.673,24.02h27.172V5.553h-27.172V24.02z"/>
	<rect x="244.557" y="5.3" fill="#3E3E49" width="0.507" height="18.675"/>
	<rect x="247.948" y="5.3" fill="#3E3E49" width="0.506" height="18.675"/>
	<rect x="251.338" y="5.3" fill="#3E3E49" width="0.507" height="18.675"/>
	<rect x="264.901" y="5.3" fill="#3E3E49" width="0.506" height="18.675"/>
	<rect x="261.51" y="5.3" fill="#3E3E49" width="0.506" height="18.675"/>
	<rect x="258.12" y="5.3" fill="#3E3E49" width="0.506" height="18.675"/>
	<rect x="254.729" y="5.3" fill="#3E3E49" width="0.506" height="18.675"/>
	<path d="M285.876,10.163v17.685c0,0.769-0.375,1.152-1.126,1.152s-1.126-0.384-1.126-1.152v-10.38h-1.153v10.38
		c0,0.769-0.375,1.152-1.126,1.152s-1.125-0.384-1.125-1.152V10.163"/>
	<path d="M280.414,4.441c0,0.637,0.228,1.183,0.683,1.636c0.455,0.456,1,0.683,1.637,0.683c0.637,0,1.182-0.228,1.637-0.683
		c0.455-0.454,0.682-1.009,0.682-1.664c0-0.618-0.228-1.154-0.682-1.609s-1-0.682-1.637-0.682c-0.637,0-1.183,0.227-1.637,0.682
		C280.642,3.259,280.414,3.805,280.414,4.441z"/>
	<path d="M280.272,9.477l-1.57-0.081c0,0-3.332-0.461-1.788-3.413l1.218-1.598c0,0,1.734-0.704,1.301,1.083l-0.786,0.948
		c0,0-0.867,1.273,0.217,1.328l6.338,0.054c0,0,0.514,0.108,0.92,0.893c0,0,2.004,2.709,4.361,3.251c0,0,0.867,0.406,0.054,1.029
		c0,0-3.25-0.298-4.388-1.787l-0.298,0.054v4.741h-5.606L280.272,9.477z"/>
	<path d="M282.118,3.46l1.244-0.024c0,0,2.798-1.052,0.478-2.176c0,0-1.292,0.143-1.77,0.454c0,0-1.315,0.718-1.841,1.866
		c0,0-0.623,1.531,0.765,0.932C280.994,4.512,281.664,3.436,282.118,3.46z"/>
	<path d="M293.293,3.147l-0.303,1.016l0.06,0.071l-0.783,2.625l-0.613-0.183l-0.008,0.025l-0.6-0.179
		c-0.102-0.03-0.208,0.028-0.24,0.131c-0.03,0.103,0.012,0.26,0.114,0.29l0.615,0.13l-0.717,2.404
		c-0.004-0.002-0.008-0.004-0.012-0.005c-0.074-0.022-0.153,0.021-0.175,0.096l-0.119,0.396c-0.022,0.075,0.02,0.153,0.095,0.176
		c0.004,0.001,0.008,0.001,0.013,0.002l-3.082,10.33c-0.11-0.024-0.225,0.04-0.258,0.153l-0.013,0.042
		c-0.105-0.008-0.205,0.061-0.237,0.165l-0.007,0.026c-0.036,0.122,0.033,0.253,0.154,0.288c0.056,0.017,0.114,0.011,0.165-0.014
		l-0.291,0.974l0.048,0.016c-0.017,0.148,0.004,0.373,0.056,0.501c0.062,0.153,0.265,1.139,0.193,1.38l-1.043,3.616
		c-0.029,0.102-0.08,0.418,0.086,0.458c0.166,0.042,0.284,0.011,0.435,0.004c0.677-0.032,1.375,0.104,1.818,0.227
		c0.272,0.077,0.361,0.046,0.397-0.078s0.023-0.315,0.015-0.436c-0.009-0.12-0.363-4.271-0.358-4.377
		c0.005-0.083,0.012-0.21,0.024-0.299l0.027,0.008l0.482-1.616l0.049,0.015c0.043,0.012,0.115,0.014,0.151-0.037
		c0.035-0.049,0.302-0.387,0.638-0.28c0.193,0.061,0.311,0.312,0.36,0.402c0.038,0.073,0.144,0.234,0.293,0.358
		c0.149,0.126,0.268,0.222,0.365,0.299c0.097,0.076,0.251,0.161,0.349,0.104c0.098-0.06,0.633-0.543,0.693-0.623
		c0.089-0.123,0.146-0.244,0.123-0.322c-0.014-0.044-0.126-0.093-0.202-0.107s-0.292-0.181-0.343-0.238
		c-0.05-0.054-0.223-0.146-0.317-0.186c-0.094-0.045-0.132-0.155-0.186-0.185c-0.052-0.03-0.153-0.049-0.211-0.098
		c-0.059-0.05-0.152-0.189-0.154-0.272l0.411-0.366l0.244-0.662c0.086-0.332-0.143-0.501-0.235-0.527
		c-0.084-0.025-0.332-0.065-0.544-0.098l0.201-0.674l0.389,0.057l0.024-0.102l2.173,0.317l0.262-1.75l-0.127-0.179l-2.171-0.324
		l-0.026-0.051l-0.788-0.154c0,0,0.254-0.105,0.314-0.34c0.263-1.002,1.456-6.434,1.722-7.532c0.044-0.183,0.043-0.396,0.042-0.572
		l-0.151-0.045l0.05-0.165l0.097,0.029c-0.006-0.127-0.016-0.213-0.016-0.213l-0.049-0.014l0.783-2.625l0.137-0.012l0.303-1.016
		c0,0-0.061-0.063-0.247-0.127c-0.187-0.064-0.342-0.048-0.342-0.048L293.293,3.147z M291.132,19.88l-0.495,0.402l-0.32-0.266
		l0.098-0.33c0.137,0.062,0.29,0.104,0.435,0.106c0.118,0.002,0.22-0.013,0.335-0.062L291.132,19.88L291.132,19.88z M291.215,18.904
		c0.118,0.058,0.182,0.245,0.137,0.373l-0.095,0.259c-0.088,0.034-0.238,0.077-0.378,0.051c-0.148-0.026-0.264-0.079-0.377-0.189
		l0.172-0.575c0.15,0.008,0.44,0.037,0.542,0.084V18.904z"/>
	<g>
		<circle cx="314.568" cy="3.495" r="2.495"/>
		<path d="M314.678,6.463c0,0-3.556-0.088-4.089,7.199c-0.532,7.288-0.355,6.31-0.355,6.31s0.578,0.62,2.845,0.62v7.022
			c0,0,1.332,2.399,2.977,0.09v-7.022c0,0,1.601-0.043,2.711-0.754v-1.557c0,0,5.066-3.243-0.312-6.887l-0.312-0.533
			C318.143,10.952,321.121,8.286,314.678,6.463z"/>
	</g>
	<path fill="#AAAAAA" d="M338.088,9.907V28.77c0,0.82,0.461,1.23,1.386,1.23c0.923,0,1.386-0.41,1.386-1.23V17.697h1.418V28.77
		c0,0.82,0.462,1.23,1.386,1.23s1.386-0.41,1.386-1.23V9.907h0.676c2.267,1.157,5.469,0.565,5.469,0.565s3.449-1.857,3.868-2.763
		c0.418-0.906-1.726-1.042-1.726-1.042c-2.352,2.718-4.181,2.083-4.181,2.083l-2.315-1.245c-0.654-0.391-1.498-0.586-2.535-0.586
		h-5.541"/>
	<g>
		<path d="M347.993,21.408l1.005,1.209c0,0,0.287,0.383-0.107,1.029c-0.396,0.645-1.172,2.477-1.172,2.477l-0.192,0.539
			c0,0-0.442,2.92,1.88,0.766l1.878-3.949c0,0,0.442-0.896-0.18-1.412l-0.945-1.197L347.993,21.408z"/>
		<path d="M345.367,21.16c0,0,0.451,0.344,1.969,0.445v7.453c0,0-0.793,1.727-1.929,0.057L345.367,21.16z"/>
		<ellipse cx="347.194" cy="8.265" rx="2.058" ry="2.124"/>
	</g>
	<path fill="#AAAAAA" d="M338.791,6.95c1.563-0.521,7.524,1.584,7.921,1.754s0.566,0.961-0.735,1.47
		c-1.302,0.511-7.413-0.791-7.413-0.791"/>
	<circle fill="#AAAAAA" cx="342.015" cy="3.95" r="2.546"/>
	<path fill="#AAAAAA" d="M338.847,7.063"/>
	<polygon points="349.14,6.185 347.938,5.298 350.172,3.999 348.237,3.999 348.483,1.531 347.295,3.562 346.459,2.621 
		346.349,4.102 345.488,3.402 345.685,5.07 345.477,5.094 345.221,2.915 346.17,3.687 346.287,2.111 347.261,3.208 348.546,1.012 
		348.739,1.076 348.469,3.789 350.948,3.789 348.316,5.319 349.265,6.017 	"/>
	<path d="M354.373,8.195c0,0-0.856,3.5-5.379,2.882c0,0-1.93-0.083-1.691-0.012c0,0-2.12,0.13-2.571,0.535l-2.311,1.929
		c0,0-0.737,0.452,0.023,1.143c0.763,0.69,1.655,1.655,1.655,1.655s1.298,0.941,0.988-0.631l-1.167-1.309
		c0,0-0.428-0.215-0.047-0.429l0.713-0.571c0,0,0.138,1.211,0.907,1.317c0.012,0.528,0.024,1.058,0.036,1.585
		c-0.062,0.115-0.123,0.232-0.186,0.35c-0.62,1.16-1.241,2.32-1.861,3.482c0,0,0.675,0.359,1.577,0.668
		c0.688,0.236,1.529,0.373,2.286,0.367c0,0-0.013,0.043,0,0c1.742-0.006,3.796-1.105,3.796-1.105l-2.047-3.83l0.037-1.685
		c0.296-0.094,0.562-0.36,0.716-0.935c0,0,0.144-0.787-0.094-1.025l-0.071-0.166c0,0,1.452,0.024,1.856-0.166
		c0,0,2.358-0.478,3.431-2.287c0,0,0.547-1.022,0.665-1.381C355.636,8.576,355.612,7.005,354.373,8.195z"/>
	<path d="M384.825,17.438c-0.591-1.31-4.198-2.446-4.198-2.446c-1.922-0.677-1.935-1.355-1.935-1.355
		c-3.782,7.453-6.654,0.02-6.654,0.02c-0.263,1.007-4.154,2.186-4.154,2.186c-1.134,0.438-1.616,1.096-1.616,1.096
		c-1.684,2.491-1.881,8.042-1.881,8.042c0.023,1.269,0.57,1.4,0.57,1.4c3.867,1.728,9.935,2.032,9.935,2.032
		c6.23,0.133,10.767-1.77,10.767-1.77c0.655-0.415,0.677-0.744,0.677-0.744C386.792,21.919,384.825,17.438,384.825,17.438z
		 M378.141,24.462h-1.847v1.886h-1.604v-1.886h-1.869v-1.605h1.871v-1.828h1.603v1.828h1.848L378.141,24.462L378.141,24.462z"/>
	<path d="M370.796,3.878c0,0-0.385,0.917,0.125,3.619c-0.726-0.344-0.229,1.433-0.229,1.433c0.072,0.473,0.271,0.681,0.393,0.769
		c0.29,2.396,2.351,4.878,4.224,4.878c2.148,0,4.193-2.609,4.513-4.878c0.119-0.089,0.317-0.297,0.39-0.767
		c0,0,0.461-1.645-0.148-1.47c0.213-0.631,0.916-3.1-0.446-4.635C374.03-1.646,370.796,3.878,370.796,3.878z M371.04,8.734
		c0,0.003,0,0.003,0,0.003S371.04,8.737,371.04,8.734z"/>
	<path d="M404.88,7.924c-0.002,0-0.005,0.001-0.008,0.002c-0.301,0.072-0.593,0.194-0.866,0.349c0.163,1.25,0.884,2.38,1.594,2.38
		c0.711,0,1.433-1.135,1.595-2.387c-0.271-0.149-0.561-0.264-0.854-0.335l-0.742,0.746L404.88,7.924z"/>
	<path d="M410.618,18.465v-0.788c0.385-0.158,0.657-0.536,0.657-0.978c0-5.701-2.933-7.77-3.65-8.166
		c-0.215,1.255-0.922,2.431-1.839,2.581c-0.139,0.681,0.103,0.955,0.384,1.263c0.517,0.561,0.81,1.094-0.084,2.567
		c0.062,0.094,0.1,0.208,0.1,0.329c0,0.33-0.267,0.596-0.596,0.596s-0.596-0.267-0.596-0.596c0-0.328,0.267-0.596,0.596-0.596
		c0.033,0,0.064,0.004,0.096,0.01c0.779-1.278,0.492-1.598,0.135-1.989c-0.303-0.329-0.671-0.734-0.518-1.604
		c-0.866-0.208-1.531-1.33-1.744-2.532c-0.027,0.013-0.053,0.024-0.079,0.041c-0.146,0.093-3.562,2.361-3.562,7.949
		c0,0.585,0.474,1.059,1.058,1.059s1.058-0.474,1.058-1.059c0-1.269,0.212-2.737,0.513-3.585v2.6l-1.082,6.113h1.234l0.001,6.201
		c0,0.754,0.61,1.364,1.364,1.364s1.364-0.611,1.364-1.364v-6.201h0.193l-0.001,6.201c0,0.754,0.611,1.364,1.365,1.364
		s1.365-0.61,1.365-1.364v-6.201h0.887v2.745h2.044v-5.959H410.618z M409.238,18.465v1.08l-0.604-3.929v-2.68
		c0.401,0.925,0.525,2.228,0.525,3.764c0,0.473,0.312,0.868,0.741,1.003v0.762H409.238L409.238,18.465z"/>
	<path d="M407.614,3.498h0.017l0.325-2.276c0,0-1.681-1.084-4.444,0.054l0.355,2.083c-0.422,0.447-0.681,1.049-0.681,1.711
		c0,1.377,1.116,2.493,2.492,2.493c1.378,0,2.494-1.116,2.494-2.493C408.173,4.474,407.964,3.927,407.614,3.498z"/>
	<polygon fill="#FFFFFF" points="406.736,1.998 406.041,1.998 406.041,1.303 405.427,1.303 405.427,1.998 404.73,1.998 
		404.73,2.612 405.427,2.612 405.427,3.308 406.041,3.308 406.041,2.612 406.736,2.612 	"/>
	<g>
		<path d="M422.69,27.331l-0.633,1.915h-0.813l2.069-6.088h0.948l2.078,6.088h-0.841l-0.649-1.915H422.69z M424.688,26.717
			l-0.598-1.753c-0.135-0.396-0.226-0.759-0.314-1.111h-0.02c-0.09,0.361-0.189,0.731-0.307,1.102l-0.597,1.763H424.688z"/>
		<path d="M427.768,23.158v3.604c0,1.364,0.604,1.942,1.418,1.942c0.903,0,1.481-0.597,1.481-1.942v-3.604h0.795v3.549
			c0,1.87-0.984,2.638-2.305,2.638c-1.246,0-2.185-0.713-2.185-2.602v-3.585H427.768z"/>
		<path d="M433.981,23.825h-1.852v-0.667h4.508v0.667h-1.861v5.421h-0.795V23.825z"/>
		<path d="M437.314,23.239c0.397-0.081,0.967-0.128,1.509-0.128c0.841,0,1.383,0.154,1.762,0.497
			c0.308,0.271,0.479,0.687,0.479,1.156c0,0.805-0.505,1.338-1.146,1.555v0.027c0.47,0.162,0.75,0.596,0.895,1.228
			c0.198,0.85,0.343,1.437,0.47,1.672h-0.813c-0.1-0.172-0.235-0.696-0.406-1.455c-0.181-0.841-0.506-1.155-1.22-1.183h-0.74v2.638
			h-0.787V23.239z M438.102,26.012h0.803c0.84,0,1.373-0.461,1.373-1.156c0-0.785-0.568-1.13-1.4-1.139
			c-0.379,0-0.649,0.036-0.775,0.072V26.012z"/>
		<path d="M445.327,26.392h-2.366v2.194h2.639v0.66h-3.425v-6.088h3.288v0.659h-2.502v1.924h2.366V26.392z"/>
		<path d="M446.511,28.288c0.353,0.217,0.867,0.397,1.409,0.397c0.805,0,1.273-0.425,1.273-1.038c0-0.57-0.325-0.895-1.147-1.211
			c-0.993-0.354-1.607-0.867-1.607-1.726c0-0.949,0.787-1.653,1.969-1.653c0.623,0,1.075,0.145,1.347,0.298l-0.218,0.642
			c-0.197-0.108-0.604-0.289-1.156-0.289c-0.83,0-1.146,0.497-1.146,0.912c0,0.57,0.37,0.849,1.21,1.174
			c1.031,0.398,1.555,0.896,1.555,1.79c0,0.939-0.695,1.752-2.133,1.752c-0.587,0-1.229-0.172-1.555-0.388L446.511,28.288z"/>
	</g>
	<path d="M425.918,20.368c0,0.558,0.273,0.836,0.817,0.836c0.545,0,0.818-0.278,0.818-0.836v-7.534h0.836v7.534
		c0,0.558,0.272,0.836,0.817,0.836s0.816-0.278,0.816-0.836V7.532h0.399v4.624c0,0.293,0.101,0.506,0.299,0.639
		c0.2,0.132,0.405,0.132,0.618,0c0.212-0.133,0.318-0.346,0.318-0.639V7.173c0-0.531-0.179-0.943-0.538-1.235
		c-0.358-0.292-0.856-0.438-1.495-0.438h-3.268c-0.612,0-1.11,0.132-1.496,0.399c-0.385,0.265-0.578,0.677-0.578,1.235v5.302
		c0,0.238,0.107,0.412,0.32,0.518c0.212,0.106,0.418,0.106,0.617,0c0.199-0.106,0.3-0.28,0.3-0.518V7.532h0.397V20.368z"/>
	<path d="M442.222,14.269l-2.392-6.617c-0.026-0.027-0.04-0.053-0.04-0.08c0-0.132,0.066-0.199,0.199-0.199
		c0.079,0,0.133,0.053,0.159,0.159l1.635,4.266c0.134,0.292,0.425,0.438,0.877,0.438c0.16,0,0.272-0.119,0.339-0.358
		c0.065-0.24,0.1-0.398,0.1-0.478l-1.673-4.105c-0.055-0.506-0.293-0.932-0.719-1.276c-0.425-0.345-0.917-0.518-1.476-0.518h-2.112
		c-0.558,0-1.056,0.179-1.494,0.538s-0.697,0.778-0.777,1.256l-1.555,4.145c-0.054,0.08-0.04,0.233,0.039,0.458
		c0.081,0.227,0.2,0.338,0.358,0.338c0.505,0,0.798-0.132,0.878-0.397l1.595-4.306c0.026-0.08,0.079-0.119,0.159-0.119
		c0.106,0,0.158,0.053,0.158,0.159v0.04l-2.351,6.657v0.518c0,0.053,0.065,0.146,0.199,0.279c0.133,0.132,0.227,0.198,0.278,0.198
		h1.516v5.144c0,0.212,0.086,0.397,0.26,0.558c0.172,0.159,0.364,0.238,0.577,0.238s0.398-0.079,0.559-0.238
		c0.159-0.16,0.238-0.346,0.238-0.558v-5.342c0-0.026,0.073-0.047,0.22-0.061c0.146-0.013,0.285-0.013,0.419,0
		c0.132,0.014,0.199,0.034,0.199,0.061v5.302c0,0.212,0.079,0.405,0.239,0.578c0.159,0.172,0.353,0.258,0.577,0.258
		c0.227,0,0.419-0.086,0.578-0.258c0.159-0.173,0.239-0.366,0.239-0.578v-5.104h1.555c0.08,0,0.173-0.066,0.279-0.198
		c0.106-0.133,0.159-0.227,0.159-0.279v-0.119v-0.16v-0.16V14.269z"/>
	<path d="M426.237,3.088c0,0.464,0.166,0.863,0.498,1.196c0.332,0.332,0.731,0.498,1.196,0.498c0.466,0,0.863-0.166,1.196-0.498
		c0.331-0.333,0.497-0.737,0.497-1.216c0-0.452-0.166-0.844-0.497-1.176c-0.333-0.332-0.73-0.498-1.196-0.498
		c-0.465,0-0.864,0.166-1.196,0.498S426.237,2.623,426.237,3.088z"/>
	<path d="M436.441,3.088c0,0.464,0.166,0.863,0.498,1.196c0.333,0.332,0.731,0.498,1.196,0.498s0.863-0.166,1.196-0.498
		c0.332-0.333,0.498-0.731,0.498-1.196c0-0.465-0.166-0.864-0.498-1.196c-0.333-0.332-0.731-0.498-1.196-0.498
		s-0.863,0.166-1.196,0.498C436.607,2.224,436.441,2.623,436.441,3.088z"/>
	<path d="M445.107,20.717c0,0.325,0.159,0.487,0.477,0.487s0.476-0.162,0.476-0.487v-4.391h0.488v4.391
		c0,0.325,0.159,0.487,0.476,0.487c0.318,0,0.478-0.162,0.478-0.487v-7.48h0.231v2.694c0,0.171,0.058,0.295,0.175,0.372
		c0.115,0.077,0.236,0.077,0.36,0s0.185-0.201,0.185-0.372v-2.904c0-0.309-0.104-0.549-0.312-0.72
		c-0.209-0.17-0.499-0.255-0.871-0.255h-1.906c-0.355,0-0.646,0.078-0.87,0.232c-0.225,0.155-0.337,0.395-0.337,0.721v3.09
		c0,0.14,0.062,0.239,0.186,0.303c0.124,0.062,0.244,0.062,0.359,0c0.116-0.063,0.175-0.163,0.175-0.303v-2.857h0.232V20.717z"/>
	<path d="M445.293,10.505c0,0.271,0.098,0.503,0.291,0.697s0.426,0.29,0.696,0.29c0.271,0,0.504-0.096,0.697-0.29
		s0.291-0.43,0.291-0.709c0-0.263-0.098-0.492-0.291-0.685c-0.193-0.194-0.426-0.29-0.697-0.29c-0.271,0-0.503,0.096-0.696,0.29
		C445.391,10.001,445.293,10.234,445.293,10.505z"/>
	<g>
		<circle cx="464.168" cy="7.216" r="2.243"/>
		<path d="M470.623,12.111c-0.188-0.36-0.367-0.702-0.392-0.807c0.036-0.007,0.042-0.038,0.043-0.042
			c0.008-0.05,0.015-0.09-2.258-0.828l-0.078-0.025l0.133,0.646l-1.335-0.464c-0.415-0.429-0.998-0.682-1.634-0.682
			c-0.758,0-1.677,0.388-1.985,1.477c-1.133,1.222-2.578,2.142-4.182,2.664c-0.827,0.269-1.018,1.007-0.931,1.558
			c0.088,0.558,0.509,1.158,1.221,1.158c0.144,0,0.292-0.025,0.444-0.074c1.27-0.413,2.447-1.007,3.504-1.763
			c0.124,1.254,0.326,2.525,0.604,3.777c-1.883,2.648-2.568,5.426-2.093,8.491c0.097,0.626,0.519,1,1.126,1
			c0.444,0,0.902-0.214,1.196-0.557c0.194-0.227,0.406-0.611,0.322-1.161c-0.319-2.059,0.184-4.066,1.495-5.967
			c0.017,0,0.031,0.001,0.048,0.001c0.472,2.158,1.021,4.349,1.635,6.512c0.172,0.607,0.646,0.97,1.271,0.97l0,0
			c0.469,0,0.924-0.216,1.188-0.565c0.167-0.222,0.335-0.598,0.185-1.132c-0.735-2.595-1.367-5.169-1.879-7.647
			c0.061-0.314,0.052-0.645-0.025-0.982c-0.041-0.178-0.076-0.354-0.108-0.518l-0.099-0.618l1.082-0.305l0.071,0.348l0.027,0.008
			c0.012,0.002,0.271,0.068,0.661,0.068c0.454,0,1.123-0.092,1.742-0.529C472.431,15.553,471.298,13.398,470.623,12.111z
			 M468.023,16.439l-0.812-5.104l-0.004-0.01c-0.085-0.216-0.2-0.414-0.342-0.588l1.227,0.427l1.009,4.971L468.023,16.439z"/>
	</g>
	<path d="M500.043,26.598c-0.778-2.748-1.446-5.473-1.988-8.097c0.063-0.332,0.055-0.682-0.026-1.042
		c-0.043-0.186-0.082-0.372-0.116-0.546l-0.979-6.157l-0.003-0.01c-0.357-0.91-1.232-1.498-2.229-1.498
		c-0.804,0-1.776,0.412-2.102,1.563c-1.199,1.293-2.73,2.268-4.428,2.821c-0.875,0.284-1.079,1.065-0.985,1.647
		c0.093,0.592,0.538,1.226,1.293,1.226c0.15,0,0.31-0.025,0.469-0.078c1.344-0.438,2.592-1.064,3.71-1.867
		c0.131,1.329,0.346,2.675,0.641,4c-1.994,2.804-2.719,5.744-2.216,8.988c0.103,0.664,0.549,1.059,1.191,1.059
		c0.471,0,0.956-0.226,1.268-0.588c0.205-0.239,0.431-0.647,0.341-1.23c-0.338-2.179,0.194-4.303,1.582-6.315
		c0.018,0,0.034,0,0.052,0c0.499,2.284,1.082,4.604,1.731,6.896c0.181,0.643,0.684,1.025,1.343,1.025l0,0
		c0.497,0,0.979-0.229,1.259-0.598C500.025,27.562,500.203,27.164,500.043,26.598z"/>
	<circle fill="#0E0F0F" cx="493.709" cy="6.395" r="2.375"/>
	<path fill="#C8C8CF" d="M500.587,11.553c-0.171-0.328-0.349-0.666-0.397-0.804c0.02-0.018,0.031-0.041,0.035-0.062
		c0.017-0.103,0.021-0.137-2.426-0.931l-0.162-0.053l1.35,6.641l0.061,0.015c0.013,0.004,0.296,0.076,0.712,0.076
		c0.487,0,1.208-0.1,1.873-0.57C502.521,15.237,501.312,12.933,500.587,11.553z"/>
	
		<rect x="496.623" y="8.823" transform="matrix(0.3287 -0.9444 0.9444 0.3287 323.8819 475.917)" fill="#C8C8CF" width="0.199" height="2.604"/>
	
		<rect x="496.779" y="16.027" transform="matrix(0.9624 -0.2715 0.2715 0.9624 14.3347 135.8536)" fill="#C8C8CF" width="2.629" height="0.199"/>
	<path fill="#A9A9A9" d="M528.117,19.168l-3.19-8.825c-0.034-0.035-0.052-0.07-0.052-0.106c0-0.177,0.089-0.266,0.265-0.266
		c0.106,0,0.178,0.071,0.213,0.213l2.18,5.688c0.178,0.39,0.566,0.584,1.17,0.584c0.213,0,0.363-0.16,0.451-0.479
		c0.089-0.319,0.133-0.532,0.133-0.638l-2.232-5.476c-0.07-0.672-0.39-1.24-0.957-1.701c-0.566-0.461-1.222-0.691-1.967-0.691
		h-2.817c-0.743,0-1.408,0.239-1.993,0.718c-0.585,0.478-0.931,1.037-1.037,1.674l-2.073,5.528c-0.07,0.107-0.053,0.311,0.053,0.612
		c0.107,0.301,0.267,0.452,0.48,0.452c0.673,0,1.062-0.177,1.168-0.532l2.126-5.74c0.036-0.107,0.107-0.16,0.214-0.16
		c0.142,0,0.212,0.071,0.212,0.213v0.053l-3.136,8.877v0.69c0,0.072,0.089,0.195,0.267,0.373c0.176,0.178,0.301,0.267,0.37,0.267
		h2.021v6.856c0,0.284,0.116,0.531,0.347,0.744c0.229,0.213,0.487,0.319,0.77,0.319c0.284,0,0.532-0.106,0.745-0.319
		c0.212-0.213,0.319-0.46,0.319-0.744v-7.123c0-0.036,0.097-0.063,0.293-0.081c0.193-0.016,0.381-0.016,0.556,0
		c0.178,0.018,0.267,0.046,0.267,0.081v7.07c0,0.284,0.106,0.54,0.319,0.771c0.213,0.229,0.47,0.346,0.771,0.346
		c0.3,0,0.557-0.116,0.77-0.346c0.213-0.23,0.319-0.486,0.319-0.771v-6.804h2.073c0.107,0,0.23-0.089,0.373-0.267
		c0.141-0.178,0.212-0.301,0.212-0.373v-0.16v-0.211v-0.212V19.168z"/>
	<path fill="#A9A9A9" d="M520.409,4.257c0,0.62,0.222,1.151,0.664,1.595c0.443,0.443,0.975,0.665,1.595,0.665
		c0.621,0,1.151-0.221,1.596-0.665c0.441-0.443,0.663-0.975,0.663-1.595s-0.222-1.151-0.663-1.594
		c-0.444-0.443-0.975-0.665-1.596-0.665c-0.62,0-1.151,0.221-1.595,0.665C520.631,3.105,520.409,3.637,520.409,4.257z"/>
	<path d="M531.966,27.768c0,0.434,0.21,0.65,0.635,0.65c0.423,0,0.635-0.217,0.635-0.65v-5.856h0.65v5.856
		c0,0.434,0.213,0.65,0.635,0.65c0.424,0,0.637-0.217,0.637-0.65v-9.977h0.309v3.594c0,0.227,0.078,0.393,0.233,0.495
		c0.154,0.104,0.314,0.104,0.479,0c0.165-0.103,0.248-0.269,0.248-0.495v-3.874c0-0.413-0.14-0.732-0.418-0.959
		c-0.279-0.229-0.666-0.342-1.162-0.342h-2.54c-0.476,0-0.862,0.104-1.163,0.31c-0.3,0.207-0.449,0.527-0.449,0.961v4.121
		c0,0.186,0.083,0.32,0.248,0.402c0.166,0.082,0.326,0.082,0.481,0c0.154-0.082,0.232-0.217,0.232-0.402v-3.811h0.31V27.768z"/>
	<path d="M532.213,14.396c0,0.361,0.13,0.671,0.388,0.929c0.257,0.258,0.567,0.388,0.929,0.388s0.672-0.13,0.931-0.388
		c0.257-0.258,0.387-0.573,0.387-0.945c0-0.351-0.13-0.656-0.387-0.914c-0.259-0.258-0.569-0.387-0.931-0.387
		s-0.672,0.129-0.929,0.387C532.343,13.724,532.213,14.034,532.213,14.396z"/>
	<polygon points="530.519,1.166 530.042,0.905 522.712,14.34 515.348,0.843 514.871,1.104 522.401,14.906 514.932,28.596 
		515.409,28.855 522.712,15.472 529.981,28.794 530.457,28.534 523.021,14.906 	"/>
	<path d="M163.779,28.383l0.053-3.529l-3.496,2.418c0,0-2.624,0.737-1.946-2.076l3.501-2.771c0,0,1.17-2.665,2.246-3.778
		c1.076-1.113,4.029-0.293,4.029-0.293s1.743,1.439,2.009,2.502c0.267,1.063,1.451,2.141,1.451,2.141l2.302,1.87
		c0,0,2.139,3.28-1.379,2.45l-3.351-2.521l-0.052,3.458"/>
	<circle cx="166.363" cy="14.856" r="2.365"/>
	<g>
		<path d="M162.358,12.298h-3.668l-1.298-0.52c-0.202-0.108-0.438-0.203-0.702-0.28l-0.133-0.054v0.018
			c-0.454-0.119-0.977-0.188-1.536-0.188c-1.727,0-3.127,0.649-3.127,1.45s1.4,1.45,3.127,1.45c0.582,0,1.125-0.074,1.592-0.202
			l0,0.031l2.161-0.683l0.003-0.057h3.58V12.298z"/>
		<g>
			
				<linearGradient id="SVGID_9_" gradientUnits="userSpaceOnUse" x1="83.5508" y1="-112.3125" x2="82.1948" y2="-112.3125" gradientTransform="matrix(0.07 -0.9975 0.9975 0.07 259.3245 103.1499)">
				<stop  offset="0" style="stop-color:#FF0000"/>
				<stop  offset="0.1156" style="stop-color:#E30000"/>
				<stop  offset="0.2871" style="stop-color:#C00000"/>
				<stop  offset="0.4614" style="stop-color:#A50000"/>
				<stop  offset="0.6372" style="stop-color:#910000"/>
				<stop  offset="0.8155" style="stop-color:#860000"/>
				<stop  offset="1" style="stop-color:#820000"/>
			</linearGradient>
			<path fill="url(#SVGID_9_)" d="M152.991,13.266c0,0-0.566-0.025-0.504-0.718c0.063-0.691,0.71-0.596,0.71-0.596l0.519-0.006
				c0,0-0.215,0.836-0.066,1.443L152.991,13.266z"/>
			
				<linearGradient id="SVGID_10_" gradientUnits="userSpaceOnUse" x1="81.4766" y1="-108.2822" x2="83.9548" y2="-111.9152" gradientTransform="matrix(0.07 -0.9975 0.9975 0.07 259.3245 103.1499)">
				<stop  offset="0" style="stop-color:#FF0000"/>
				<stop  offset="0.3976" style="stop-color:#FD0000"/>
				<stop  offset="0.5573" style="stop-color:#F60000"/>
				<stop  offset="0.6742" style="stop-color:#EA0000"/>
				<stop  offset="0.7703" style="stop-color:#D80000"/>
				<stop  offset="0.8535" style="stop-color:#C20000"/>
				<stop  offset="0.9268" style="stop-color:#A60000"/>
				<stop  offset="0.9932" style="stop-color:#860000"/>
				<stop  offset="1" style="stop-color:#820000"/>
			</linearGradient>
			<path fill="url(#SVGID_10_)" d="M152.781,12.015c0,0,0.645-0.271,1.528,0.424c0.839,0.658,2.368,2.083,2.368,2.083l1.01-0.603
				c0,0-2.086-1.9-2.693-2.244c-0.606-0.346-0.957-0.275-1.153-0.186C153.645,11.579,152.781,12.015,152.781,12.015z"/>
			
				<linearGradient id="SVGID_11_" gradientUnits="userSpaceOnUse" x1="81.7529" y1="-112.0107" x2="84.3088" y2="-108.4558" gradientTransform="matrix(0.07 -0.9975 0.9975 0.07 259.3245 103.1499)">
				<stop  offset="0" style="stop-color:#FF0000"/>
				<stop  offset="0.2746" style="stop-color:#DE0000"/>
				<stop  offset="0.5505" style="stop-color:#C50000"/>
				<stop  offset="0.8006" style="stop-color:#B50000"/>
				<stop  offset="1" style="stop-color:#B00000"/>
			</linearGradient>
			<path fill="url(#SVGID_11_)" d="M152.641,13.125c0,0,0.633,0.411,1.605-0.152c0.923-0.536,2.635-1.733,2.635-1.733l0.916,0.738
				c0,0-2.331,1.59-2.979,1.848c-0.649,0.256-0.986,0.138-1.168,0.021C153.468,13.729,152.641,13.125,152.641,13.125z"/>
		</g>
	</g>
	<g>
		<path d="M165.931,5.52c-0.413-0.41-0.851-0.74-1.272-0.978l0.021-0.022l-2.016-1.038l-0.042,0.039L160.082,1l-0.681,0.687
			l2.604,2.583l0.556,1.282c0.067,0.22,0.168,0.455,0.301,0.695l0.057,0.13l0.011-0.012c0.238,0.404,0.562,0.821,0.959,1.214
			c1.227,1.216,2.678,1.742,3.242,1.173C167.695,8.183,167.158,6.736,165.931,5.52z"/>
		<g>
			
				<linearGradient id="SVGID_12_" gradientUnits="userSpaceOnUse" x1="419.2227" y1="98.7705" x2="417.8657" y2="98.7705" gradientTransform="matrix(-0.7521 0.6591 -0.6591 -0.7521 546.0938 -193.598)">
				<stop  offset="0" style="stop-color:#FF0000"/>
				<stop  offset="0.1156" style="stop-color:#E30000"/>
				<stop  offset="0.2871" style="stop-color:#C00000"/>
				<stop  offset="0.4614" style="stop-color:#A50000"/>
				<stop  offset="0.6372" style="stop-color:#910000"/>
				<stop  offset="0.8155" style="stop-color:#860000"/>
				<stop  offset="1" style="stop-color:#820000"/>
			</linearGradient>
			<path fill="url(#SVGID_12_)" d="M166.733,7.594c0,0,0.384,0.417-0.148,0.864c-0.532,0.447-0.924-0.076-0.924-0.076l-0.373-0.361
				c0,0,0.742-0.443,1.064-0.979L166.733,7.594z"/>
			
				<linearGradient id="SVGID_13_" gradientUnits="userSpaceOnUse" x1="417.1484" y1="102.7988" x2="419.6252" y2="99.168" gradientTransform="matrix(-0.7521 0.6591 -0.6591 -0.7521 546.0938 -193.598)">
				<stop  offset="0" style="stop-color:#FF0000"/>
				<stop  offset="0.3976" style="stop-color:#FD0000"/>
				<stop  offset="0.5573" style="stop-color:#F60000"/>
				<stop  offset="0.6742" style="stop-color:#EA0000"/>
				<stop  offset="0.7703" style="stop-color:#D80000"/>
				<stop  offset="0.8535" style="stop-color:#C20000"/>
				<stop  offset="0.9268" style="stop-color:#A60000"/>
				<stop  offset="0.9932" style="stop-color:#860000"/>
				<stop  offset="1" style="stop-color:#820000"/>
			</linearGradient>
			<path fill="url(#SVGID_13_)" d="M166.001,8.63c0,0-0.648-0.261-0.788-1.376C165.083,6.195,165,4.107,165,4.107l-1.141-0.283
				c0,0,0.144,2.818,0.332,3.49c0.188,0.672,0.486,0.869,0.689,0.943C165.082,8.332,166.001,8.63,166.001,8.63z"/>
			
				<linearGradient id="SVGID_14_" gradientUnits="userSpaceOnUse" x1="417.4238" y1="99.0713" x2="419.9797" y2="102.6262" gradientTransform="matrix(-0.7521 0.6591 -0.6591 -0.7521 546.0938 -193.598)">
				<stop  offset="0" style="stop-color:#FF0000"/>
				<stop  offset="0.2746" style="stop-color:#DE0000"/>
				<stop  offset="0.5505" style="stop-color:#C50000"/>
				<stop  offset="0.8006" style="stop-color:#B50000"/>
				<stop  offset="1" style="stop-color:#B00000"/>
			</linearGradient>
			<path fill="url(#SVGID_14_)" d="M166.882,7.941c0,0-0.16-0.738-1.247-1.022c-1.033-0.27-3.091-0.625-3.091-0.625l-0.131-1.168
				c0,0,2.775,0.512,3.417,0.787c0.641,0.274,0.797,0.596,0.844,0.807C166.721,6.93,166.882,7.941,166.882,7.941z"/>
		</g>
	</g>
	<g>
		<path d="M180.071,10.854c-0.345-0.724-1.889-0.706-3.447,0.039c-0.525,0.251-0.984,0.552-1.35,0.868l-0.014-0.027l-1.656,1.547
			l0.021,0.053l-3.23,1.542l0.417,0.872l3.31-1.58l1.395-0.091c0.23,0.011,0.484-0.005,0.755-0.05l0.142-0.009l-0.007-0.015
			c0.46-0.088,0.963-0.252,1.466-0.493C179.432,12.766,180.416,11.576,180.071,10.854z"/>
		<g>
			
				<linearGradient id="SVGID_15_" gradientUnits="userSpaceOnUse" x1="290.6284" y1="94.8564" x2="289.2724" y2="94.8564" gradientTransform="matrix(0.3667 0.9303 -0.9303 0.3667 160.9525 -293.0626)">
				<stop  offset="0" style="stop-color:#FF0000"/>
				<stop  offset="0.1156" style="stop-color:#E30000"/>
				<stop  offset="0.2871" style="stop-color:#C00000"/>
				<stop  offset="0.4614" style="stop-color:#A50000"/>
				<stop  offset="0.6372" style="stop-color:#910000"/>
				<stop  offset="0.8155" style="stop-color:#860000"/>
				<stop  offset="1" style="stop-color:#820000"/>
			</linearGradient>
			<path fill="url(#SVGID_15_)" d="M178.847,10.838c0,0,0.522-0.222,0.764,0.431c0.242,0.65-0.383,0.844-0.383,0.844l-0.466,0.229
				c0,0-0.166-0.848-0.563-1.331L178.847,10.838z"/>
			
				<linearGradient id="SVGID_16_" gradientUnits="userSpaceOnUse" x1="288.5557" y1="98.8877" x2="291.0329" y2="95.2561" gradientTransform="matrix(0.3667 0.9303 -0.9303 0.3667 160.9525 -293.0626)">
				<stop  offset="0" style="stop-color:#FF0000"/>
				<stop  offset="0.3976" style="stop-color:#FD0000"/>
				<stop  offset="0.5573" style="stop-color:#F60000"/>
				<stop  offset="0.6742" style="stop-color:#EA0000"/>
				<stop  offset="0.7703" style="stop-color:#D80000"/>
				<stop  offset="0.8535" style="stop-color:#C20000"/>
				<stop  offset="0.9268" style="stop-color:#A60000"/>
				<stop  offset="0.9932" style="stop-color:#860000"/>
				<stop  offset="1" style="stop-color:#820000"/>
			</linearGradient>
			<path fill="url(#SVGID_16_)" d="M179.576,11.876c0,0-0.465,0.522-1.562,0.277c-1.041-0.234-3.034-0.86-3.034-0.86l-0.651,0.979
				c0,0,2.701,0.814,3.397,0.864c0.696,0.05,0.981-0.165,1.12-0.33C178.985,12.641,179.576,11.876,179.576,11.876z"/>
			
				<linearGradient id="SVGID_17_" gradientUnits="userSpaceOnUse" x1="288.8301" y1="95.1562" x2="291.387" y2="98.7126" gradientTransform="matrix(0.3667 0.9303 -0.9303 0.3667 160.9525 -293.0626)">
				<stop  offset="0" style="stop-color:#FF0000"/>
				<stop  offset="0.2746" style="stop-color:#DE0000"/>
				<stop  offset="0.5505" style="stop-color:#C50000"/>
				<stop  offset="0.8006" style="stop-color:#B50000"/>
				<stop  offset="1" style="stop-color:#B00000"/>
			</linearGradient>
			<path fill="url(#SVGID_17_)" d="M179.224,10.813c0,0-0.749-0.098-1.383,0.83c-0.602,0.881-1.631,2.699-1.631,2.699l-1.144-0.271
				c0,0,1.418-2.439,1.893-2.951c0.475-0.511,0.83-0.549,1.044-0.521C178.217,10.624,179.224,10.813,179.224,10.813z"/>
		</g>
	</g>
</g>
<g id="Layer_2">
</g>
</svg>
