<?xml version="1.0" encoding="utf-8"?>
<!-- Generator: Adobe Illustrator 16.0.0, SVG Export Plug-In . SVG Version: 6.00 Build 0)  -->
<!DOCTYPE svg PUBLIC "-//W3C//DTD SVG 1.1//EN" "http://www.w3.org/Graphics/SVG/1.1/DTD/svg11.dtd">
<svg version="1.1" id="Layer_1" xmlns="http://www.w3.org/2000/svg" xmlns:xlink="http://www.w3.org/1999/xlink" x="0px" y="0px"
	 width="600px" height="30px" viewBox="0 0 600 30" enable-background="new 0 0 600 30" xml:space="preserve">
<path d="M12.26,27.333c0,0.759,0.37,1.138,1.111,1.138c0.741,0,1.111-0.379,1.111-1.138V17.087h1.138v10.246
	c0,0.759,0.371,1.138,1.111,1.138s1.111-0.379,1.111-1.138V9.877h0.542v6.289c0,0.397,0.136,0.687,0.407,0.867s0.551,0.181,0.84,0
	c0.289-0.181,0.434-0.471,0.434-0.867V9.39c0-0.723-0.244-1.283-0.732-1.681s-1.166-0.597-2.033-0.597h-4.445
	c-0.831,0-1.509,0.181-2.033,0.542c-0.524,0.362-0.786,0.922-0.786,1.681v7.21c0,0.325,0.145,0.561,0.434,0.705s0.569,0.145,0.84,0
	s0.407-0.38,0.407-0.705V9.877h0.542V27.333z"/>
<path d="M12.694,3.833c0,0.633,0.226,1.175,0.678,1.626c0.452,0.452,0.994,0.678,1.626,0.678s1.175-0.226,1.626-0.678
	c0.452-0.451,0.678-1.003,0.678-1.653c0-0.614-0.226-1.147-0.678-1.599c-0.452-0.452-0.994-0.678-1.626-0.678
	s-1.174,0.226-1.626,0.678C12.92,2.658,12.694,3.201,12.694,3.833z"/>
<linearGradient id="SVGID_1_" gradientUnits="userSpaceOnUse" x1="16.9136" y1="8.2847" x2="13.3388" y2="8.2847">
	<stop  offset="0" style="stop-color:#FF0000"/>
	<stop  offset="0.1156" style="stop-color:#E30000"/>
	<stop  offset="0.2871" style="stop-color:#C00000"/>
	<stop  offset="0.4614" style="stop-color:#A50000"/>
	<stop  offset="0.6372" style="stop-color:#910000"/>
	<stop  offset="0.8155" style="stop-color:#860000"/>
	<stop  offset="1" style="stop-color:#820000"/>
</linearGradient>
<path fill="url(#SVGID_1_)" d="M13.416,8.136c0,0-0.038-1.494,1.792-1.456c1.83,0.037,1.699,1.754,1.699,1.754l0.112,1.363
	c0,0-2.239-0.411-3.808,0.093L13.416,8.136z"/>
<linearGradient id="SVGID_2_" gradientUnits="userSpaceOnUse" x1="11.4512" y1="18.8994" x2="17.9757" y2="9.3346">
	<stop  offset="0" style="stop-color:#FF0000"/>
	<stop  offset="0.3976" style="stop-color:#FD0000"/>
	<stop  offset="0.5573" style="stop-color:#F60000"/>
	<stop  offset="0.6742" style="stop-color:#EA0000"/>
	<stop  offset="0.7703" style="stop-color:#D80000"/>
	<stop  offset="0.8535" style="stop-color:#C20000"/>
	<stop  offset="0.9268" style="stop-color:#A60000"/>
	<stop  offset="0.9932" style="stop-color:#860000"/>
	<stop  offset="1" style="stop-color:#820000"/>
</linearGradient>
<path fill="url(#SVGID_2_)" d="M16.664,7.354c0,0,0.831,1.644-0.831,4.094c-1.577,2.326-5.038,6.604-5.038,6.604l1.771,2.542
	c0,0,4.607-5.833,5.401-7.489c0.794-1.656,0.545-2.564,0.272-3.063S16.664,7.354,16.664,7.354z"/>
<g>
	<path fill="#FF0000" d="M16.862,8.468c-0.019-0.001-0.033-0.018-0.032-0.036l0,0c0-0.001,0.002-0.025,0.002-0.072l0,0
		c0-0.161-0.04-0.56-0.203-0.934l0,0c-0.221-0.365-0.631-0.695-1.422-0.713l0,0c-0.022,0-0.044,0-0.066,0l0,0
		c-0.837,0.001-1.177,0.22-1.392,0.56l0,0c-0.214,0.341-0.244,0.803-0.244,0.853l0,0c0,0.004,0,0.006,0,0.006l0,0
		c0,0.019-0.014,0.034-0.033,0.035l0,0c-0.019,0.001-0.035-0.014-0.036-0.033l0,0c0,0,0-0.003,0-0.008l0,0
		c0-0.057,0.029-0.53,0.255-0.889l0,0c0.225-0.358,0.595-0.593,1.449-0.592l0,0c0.022,0,0.045,0,0.067,0.001l0,0
		c0.81,0.016,1.25,0.361,1.479,0.745l0,0C16.877,7.783,16.9,8.191,16.9,8.359l0,0c0,0.049-0.002,0.076-0.002,0.077l0,0
		c-0.001,0.018-0.016,0.031-0.034,0.031l0,0C16.864,8.468,16.863,8.468,16.862,8.468L16.862,8.468z"/>
</g>
<g>
	<path fill="#FF0000" d="M16.685,7.388c-0.009-0.017-0.029-0.022-0.046-0.015c-0.017,0.01-0.023,0.029-0.014,0.047l0,0
		c0,0,0.012,0.022,0.032,0.07c0.058,0.144,0.176,0.499,0.176,1.027c0,0.697-0.205,1.696-1.028,2.91
		c-0.788,1.162-2.047,2.812-3.109,4.173c-0.531,0.68-1.013,1.287-1.362,1.725c-0.313,0.393-0.521,0.647-0.56,0.696l0.041,0.056
		c0.002-0.001,0.005-0.003,0.007-0.005c0,0,3.46-4.277,5.04-6.606c0.83-1.224,1.04-2.237,1.04-2.948
		C16.901,7.8,16.687,7.392,16.685,7.388z"/>
</g>
<linearGradient id="SVGID_3_" gradientUnits="userSpaceOnUse" x1="12.1729" y1="9.0771" x2="18.9055" y2="18.4414">
	<stop  offset="0" style="stop-color:#FF0000"/>
	<stop  offset="0.2746" style="stop-color:#DE0000"/>
	<stop  offset="0.5505" style="stop-color:#C50000"/>
	<stop  offset="0.8006" style="stop-color:#B50000"/>
	<stop  offset="1" style="stop-color:#B00000"/>
</linearGradient>
<path fill="url(#SVGID_3_)" d="M13.722,7.188c0,0-0.965,1.74,0.696,4.19c1.577,2.326,5.038,6.604,5.038,6.604l-1.771,2.542
	c0,0-4.606-5.832-5.401-7.489c-0.794-1.656-0.545-2.564-0.272-3.063S13.722,7.188,13.722,7.188z"/>
<g>
	<path fill="#FF0000" d="M19.437,18.01l0.04-0.056c-0.035-0.044-0.242-0.3-0.56-0.697c-1.047-1.312-3.29-4.154-4.471-5.897
		c-0.765-1.128-0.969-2.088-0.969-2.795c0-0.41,0.069-0.735,0.138-0.957c0.034-0.111,0.068-0.196,0.094-0.254
		c0.026-0.057,0.042-0.085,0.042-0.085c0.009-0.017,0.004-0.037-0.013-0.047c-0.016-0.009-0.037-0.004-0.046,0.013
		c-0.002,0.003-0.283,0.494-0.283,1.33c0,0.72,0.208,1.695,0.98,2.833c1.579,2.329,5.04,6.606,5.04,6.606
		C19.432,18.007,19.435,18.009,19.437,18.01z"/>
</g>
<g>
	<path d="M41.038,6.797c0.327,0.003,0.607-0.111,0.843-0.342s0.355-0.515,0.358-0.85c0.003-0.317-0.11-0.593-0.341-0.829
		c-0.231-0.236-0.51-0.355-0.836-0.358c-0.327-0.003-0.607,0.111-0.843,0.342c-0.235,0.231-0.354,0.509-0.358,0.837
		c-0.003,0.325,0.111,0.607,0.341,0.842C40.432,6.675,40.711,6.794,41.038,6.797z"/>
	<path d="M56.971,26.069l-8.425-9.913c0.714-0.9,1.251-1.934,1.582-3.065c1.395-4.764-1.348-9.775-6.112-11.168
		c-0.827-0.242-1.678-0.365-2.532-0.365c-1.907,0-3.807,0.626-5.348,1.765c-1.594,1.177-2.731,2.806-3.289,4.713
		c-1.394,4.765,1.348,9.774,6.113,11.169c0.826,0.241,1.678,0.363,2.532,0.363c1.587,0,3.168-0.436,4.543-1.237l8.405,9.891
		c0.186,0.218,0.536,0.226,0.783,0.016l1.639-1.392C57.107,26.634,57.157,26.289,56.971,26.069z M34.469,8.51
		c0.906-3.099,3.791-5.262,7.015-5.262c0.692,0,1.385,0.099,2.057,0.296c3.871,1.132,6.098,5.202,4.965,9.072
		c-0.82,2.805-3.263,4.844-6.11,5.204c0.001-0.022,0.004-0.041,0.005-0.064l0.088-9.013l0.28,0.003l-0.032,3.247
		c-0.002,0.205,0.066,0.354,0.206,0.45c0.14,0.095,0.284,0.096,0.434,0.004c0.15-0.092,0.227-0.241,0.228-0.446l0.035-3.499
		c0.003-0.373-0.119-0.664-0.37-0.872c-0.25-0.207-0.599-0.313-1.047-0.317l-2.295-0.023c-0.429-0.004-0.78,0.085-1.052,0.27
		c-0.272,0.183-0.411,0.471-0.414,0.863l-0.036,3.722c-0.002,0.168,0.071,0.29,0.22,0.367c0.149,0.076,0.293,0.077,0.434,0.004
		c0.141-0.073,0.212-0.194,0.213-0.363l0.034-3.441l0.28,0.002l-0.087,8.889c-0.028-0.008-0.057-0.015-0.084-0.023
		C35.564,16.45,33.337,12.379,34.469,8.51z M41.26,17.874c-0.201-0.007-0.402-0.021-0.602-0.046c0.003-0.029,0.007-0.058,0.007-0.09
		l0.052-5.289l0.587,0.005l-0.051,5.29C41.252,17.79,41.255,17.833,41.26,17.874z"/>
</g>
<path d="M81.309,4.173c0,1.097,0.392,2.038,1.175,2.821c0.784,0.783,1.724,1.175,2.821,1.175s2.037-0.392,2.821-1.175
	c0.784-0.784,1.175-1.74,1.175-2.868c0-1.066-0.392-1.99-1.175-2.773c-0.784-0.784-1.724-1.176-2.821-1.176
	s-2.037,0.392-2.821,1.176C81.701,2.136,81.309,3.076,81.309,4.173z"/>
<g>
	<defs>
		<rect id="SVGID_4_" x="59.093" y="-1.273" width="30.494" height="30.493"/>
	</defs>
	<clipPath id="SVGID_5_">
		<use xlink:href="#SVGID_4_"  overflow="visible"/>
	</clipPath>
	<g clip-path="url(#SVGID_5_)">
		<path d="M80.599,14.111v30.276c0,1.316,0.643,1.975,1.928,1.975s1.928-0.658,1.928-1.975V26.616h1.975v17.771
			c0,1.316,0.643,1.975,1.927,1.975c1.285,0,1.928-0.658,1.928-1.975V14.111h0.94v10.907c0,0.689,0.235,1.191,0.705,1.505
			s0.956,0.313,1.458,0s0.752-0.815,0.752-1.505V13.264c0-1.253-0.423-2.225-1.269-2.915c-0.847-0.689-2.022-1.034-3.526-1.034
			h-7.71c-1.442,0-2.617,0.313-3.526,0.94l-5.282,9.361l-1.344,2.269c0,0,0.588,2.689,2.521,1.009L80.599,14.111z"/>
		<path d="M88.356,46.412c-1.312,0-1.978-0.682-1.978-2.025V26.666h-1.875v17.721c0,1.344-0.665,2.025-1.978,2.025
			c-1.312,0-1.978-0.682-1.978-2.025V14.26l-6.511,8.667l-0.004,0.004c-0.431,0.374-0.833,0.564-1.194,0.564c0,0,0,0,0,0
			c-0.435,0-0.817-0.279-1.104-0.807c-0.213-0.393-0.299-0.777-0.303-0.794l-0.004-0.019l0.01-0.018l1.344-2.269l5.287-9.37
			l0.009-0.006c0.914-0.63,2.109-0.949,3.555-0.949h7.71c1.509,0,2.706,0.352,3.558,1.045c0.854,0.697,1.288,1.69,1.288,2.954
			v11.753c0,0.705-0.261,1.225-0.776,1.547c-0.516,0.322-1.027,0.322-1.512,0c-0.482-0.322-0.727-0.843-0.727-1.547V14.161h-0.84
			v30.226C90.334,45.73,89.668,46.412,88.356,46.412z M84.404,26.566h2.075v17.82c0,1.296,0.614,1.926,1.877,1.926
			c1.264,0,1.878-0.63,1.878-1.926V14.061h1.04v10.957c0,0.669,0.23,1.161,0.683,1.463c0.452,0.301,0.92,0.301,1.403,0
			c0.483-0.303,0.729-0.795,0.729-1.463V13.264c0-1.232-0.421-2.2-1.251-2.876c-0.833-0.679-2.009-1.023-3.494-1.023h-7.71
			c-1.42,0-2.593,0.311-3.488,0.925l-5.276,9.351l-1.334,2.252c0.043,0.176,0.399,1.503,1.305,1.504h0
			c0.335,0,0.714-0.182,1.125-0.537l6.684-8.898v30.426c0,1.296,0.614,1.926,1.877,1.926c1.264,0,1.877-0.63,1.877-1.926V26.566z"/>
	</g>
</g>
<path d="M74.356,15.87l-2.75-2.483c0.12-0.162,0.205-0.337,0.242-0.507l0.005-0.033c0.087-1.061,0.013-1.127-0.073-1.204
	l-5.797-5.235c-0.169-0.153-0.432-0.14-0.585,0.03l-0.216,0.239L64.644,6.19l0.104-0.116c0.354-0.392,0.427-0.843,0.173-1.073
	c-0.254-0.229-0.695-0.111-1.049,0.281l-1.337,1.48c-0.354,0.392-0.426,0.843-0.173,1.072c0.255,0.229,0.696,0.111,1.05-0.281
	l0.104-0.116l0.538,0.486l-0.216,0.239c-0.153,0.169-0.139,0.432,0.03,0.585l5.798,5.235c0.253,0.229,1.228-0.055,1.237-0.059
	c0.166-0.055,0.332-0.157,0.48-0.292l2.75,2.484c0.068,0.061,0.173,0.055,0.234-0.014C74.43,16.037,74.424,15.932,74.356,15.87z
	 M71.4,12.806c-0.064,0.26-0.402,0.565-0.652,0.647c-0.264,0.088-0.655,0.131-0.792,0.124l-5.692-5.141l0.215-0.238
	c0.153-0.169,0.14-0.433-0.03-0.586L63.48,6.737l-0.438,0.485c-0.136,0.151-0.264,0.21-0.331,0.228
	c0.01-0.068,0.056-0.202,0.192-0.353l1.337-1.48c0.136-0.151,0.264-0.211,0.331-0.227c-0.009,0.067-0.056,0.201-0.192,0.352
	l-0.438,0.484l0.969,0.875c0.17,0.153,0.432,0.14,0.585-0.03l0.216-0.239l0.824,0.745c-0.008,0.006-0.016,0.009-0.022,0.017
	l-0.901,0.998c-0.061,0.068-0.056,0.172,0.012,0.234s0.172,0.056,0.234-0.012l0.901-0.999c0.006-0.007,0.009-0.016,0.014-0.024
	l0.234,0.211C67,8.009,66.992,8.012,66.985,8.02l-0.679,0.752c-0.062,0.068-0.056,0.172,0.012,0.234s0.173,0.056,0.235-0.012
	l0.679-0.752c0.007-0.007,0.01-0.016,0.014-0.024l0.234,0.211c-0.007,0.005-0.016,0.009-0.022,0.016l-0.902,0.999
	c-0.061,0.068-0.056,0.172,0.012,0.234s0.173,0.056,0.234-0.012l0.901-0.998c0.007-0.008,0.01-0.017,0.015-0.025l0.234,0.211
	c-0.008,0.006-0.016,0.009-0.023,0.017l-0.282,0.312c-0.015,0.011-0.031,0.021-0.044,0.036l-0.728,0.8
	c-0.088,0.098-0.104,0.23-0.031,0.295l2.651,2.454l0.003,0.002l0.114,0.105c0.004,0.004,0.01,0.004,0.014,0.007l0.51,0.441
	c0,0,0.423-0.031,0.723-0.321c0.358-0.348,0.305-0.809,0.305-0.809l-0.499-0.469c-0.001-0.001-0.001-0.003-0.002-0.004l-0.114-0.104
	l-2.535-2.346l0.16-0.178c0.006-0.007,0.01-0.016,0.015-0.024l3.202,2.892C71.49,12.27,71.497,12.417,71.4,12.806z M70.241,12.829
	c0.045,0.042,0.048,0.112,0.006,0.158c-0.022,0.023-0.052,0.035-0.082,0.035c-0.027,0-0.054-0.01-0.076-0.03l-2.567-2.387
	c-0.045-0.042-0.047-0.113-0.006-0.157c0.042-0.045,0.113-0.048,0.158-0.006L70.241,12.829z"/>
<path fill="#FFFFFF" d="M78.642,23.853c-0.585-0.521-0.466-0.827-0.228-1.44c0.148-0.381,0.373-0.957,0.569-1.906
	c0.017-0.08,0.032-0.16,0.045-0.238c-0.089-0.152-0.196-0.29-0.322-0.451c-0.183-0.233-0.389-0.498-0.619-0.9
	c-0.618-1.082-0.006-1.949,0.403-2.256l0.187-0.141l0.152,0.176c0.045,0.053,1.042,1.234,0.719,3.486
	c0.138,0.289,0.234,0.65,0.266,1.201l-0.499,0.029c-0.002-0.035-0.004-0.069-0.007-0.103c-0.157,0.589-0.313,0.991-0.428,1.284
	c-0.227,0.584-0.231,0.596,0.094,0.885L78.642,23.853z M78.604,17.249c-0.057,0.07-0.118,0.159-0.168,0.263
	c-0.175,0.363-0.146,0.752,0.085,1.156c0.211,0.371,0.407,0.621,0.579,0.841c0.002,0.003,0.005,0.006,0.007,0.009
	C79.152,18.361,78.812,17.601,78.604,17.249z"/>
<rect x="75.137" y="15.175" transform="matrix(0.7016 0.7125 -0.7125 0.7016 34.017 -50.3871)" fill="#FFFFFF" width="4.074" height="0.5"/>
<linearGradient id="SVGID_6_" gradientUnits="userSpaceOnUse" x1="104.7778" y1="1.8369" x2="104.7778" y2="29.0132">
	<stop  offset="0.0939" style="stop-color:#FF0000"/>
	<stop  offset="0.0946" style="stop-color:#FF0500"/>
	<stop  offset="0.1022" style="stop-color:#FF3000"/>
	<stop  offset="0.1096" style="stop-color:#FF5200"/>
	<stop  offset="0.1165" style="stop-color:#FF6B00"/>
	<stop  offset="0.1229" style="stop-color:#FF7A00"/>
	<stop  offset="0.1281" style="stop-color:#FF7F00"/>
	<stop  offset="0.2079" style="stop-color:#FF7F00"/>
	<stop  offset="0.323" style="stop-color:#FF8B00"/>
	<stop  offset="0.3297" style="stop-color:#FFC000"/>
	<stop  offset="0.3347" style="stop-color:#FFE100"/>
	<stop  offset="0.3375" style="stop-color:#FFED00"/>
	<stop  offset="0.5024" style="stop-color:#FFED00"/>
	<stop  offset="0.5065" style="stop-color:#6EC400"/>
	<stop  offset="0.5095" style="stop-color:#0CA900"/>
	<stop  offset="0.6661" style="stop-color:#0CA900"/>
	<stop  offset="0.668" style="stop-color:#0BA30E"/>
	<stop  offset="0.6715" style="stop-color:#099432"/>
	<stop  offset="0.6762" style="stop-color:#057B6C"/>
	<stop  offset="0.6819" style="stop-color:#015ABB"/>
	<stop  offset="0.6827" style="stop-color:#0055C6"/>
	<stop  offset="0.8136" style="stop-color:#0055C6"/>
	<stop  offset="0.8296" style="stop-color:#B210D2"/>
</linearGradient>
<path fill="url(#SVGID_6_)" d="M104.249,9.766v6.835c0,0.4-0.146,0.692-0.438,0.875c-0.292,0.182-0.574,0.182-0.848,0
	c-0.273-0.183-0.41-0.475-0.41-0.875v-6.343h-0.547v17.606c0,0.766-0.374,1.148-1.121,1.148c-0.747,0-1.121-0.383-1.121-1.148V17.53
	h-1.148v10.334c0,0.766-0.374,1.148-1.121,1.148c-0.748,0-1.121-0.383-1.121-1.148V10.258h-0.547v6.726
	c0,0.328-0.137,0.564-0.41,0.711c-0.273,0.146-0.556,0.146-0.847,0c-0.292-0.146-0.438-0.383-0.438-0.711V9.711
	c0-0.766,0.264-1.33,0.792-1.695c0.529-0.364,1.212-0.547,2.051-0.547h4.483c0.875,0,1.559,0.201,2.051,0.602
	C104.003,8.472,104.249,9.036,104.249,9.766z M99.136,6.485c0.638,0,1.185-0.229,1.641-0.684c0.456-0.456,0.683-1.012,0.683-1.668
	c0-0.62-0.228-1.157-0.683-1.613s-1.002-0.684-1.641-0.684c-0.638,0-1.185,0.228-1.64,0.684s-0.684,1.002-0.684,1.641
	c0,0.638,0.228,1.185,0.684,1.641C97.952,6.257,98.499,6.485,99.136,6.485z M114.684,8.07c-0.492-0.4-1.176-0.602-2.051-0.602
	h-4.483c-0.838,0-1.522,0.183-2.051,0.547c-0.528,0.365-0.792,0.93-0.792,1.695v7.272c0,0.328,0.146,0.564,0.438,0.711
	c0.292,0.146,0.574,0.146,0.847,0c0.273-0.146,0.41-0.383,0.41-0.711v-6.726h0.547v17.606c0,0.766,0.374,1.148,1.121,1.148
	c0.747,0,1.121-0.383,1.121-1.148V17.53h1.148v10.334c0,0.766,0.374,1.148,1.121,1.148c0.747,0,1.121-0.383,1.121-1.148V10.258
	h0.547v6.343c0,0.4,0.137,0.692,0.41,0.875c0.273,0.182,0.556,0.182,0.848,0c0.292-0.183,0.438-0.475,0.438-0.875V9.766
	C115.422,9.036,115.176,8.472,114.684,8.07z M110.309,6.485c0.638,0,1.185-0.229,1.641-0.684c0.456-0.456,0.683-1.012,0.683-1.668
	c0-0.62-0.228-1.157-0.683-1.613c-0.456-0.456-1.002-0.684-1.641-0.684c-0.638,0-1.185,0.228-1.64,0.684
	c-0.456,0.456-0.684,1.002-0.684,1.641c0,0.638,0.228,1.185,0.684,1.641C109.125,6.257,109.671,6.485,110.309,6.485z"/>
<path d="M132.489,22.322l0.888,1.067c0,0,0.254,0.339-0.095,0.909c-0.349,0.571-1.036,2.189-1.036,2.189l-0.169,0.476
	c0,0-0.391,2.58,1.66,0.677l1.66-3.49c0,0,0.391-0.793-0.159-1.246l-0.835-1.059L132.489,22.322z"/>
<path d="M130.169,22.102c0,0,0.398,0.305,1.74,0.395v6.585c0,0-0.701,1.525-1.704,0.051L130.169,22.102z"/>
<ellipse cx="131.783" cy="10.708" rx="1.818" ry="1.877"/>
<image overflow="visible" width="22" height="29" xlink:href="97FA0CBFFD5F9CF1.png"  transform="matrix(0.24 0 0 0.24 128.3843 15.2305)">
</image>
<path d="M138.056,10.583c0,0-0.761,3.109-4.779,2.559c0,0-1.713-0.074-1.501-0.011c0,0-1.882,0.116-2.284,0.476l-2.051,1.713
	c0,0-0.655,0.402,0.021,1.014c0.677,0.613,1.469,1.471,1.469,1.471s1.153,0.835,0.878-0.561l-1.036-1.163
	c0,0-0.381-0.19-0.042-0.381l0.634-0.507c0,0,0.233,2.073,1.882,0.719l0.486-0.275l0.381,0.19c0,0,0.66,0.536,1.23,0.402
	l-1.572,5.863c1.557,0.013,3.414-0.981,3.414-0.981l-1.818-3.4l0.034-1.496c0.262-0.084,0.499-0.321,0.636-0.832
	c0,0,0.127-0.698-0.085-0.909l-0.063-0.148c0,0,1.29,0.021,1.649-0.148c0,0,2.093-0.423,3.045-2.03c0,0,0.486-0.909,0.592-1.227
	C139.177,10.921,139.156,9.525,138.056,10.583z"/>
<polygon points="141.609,29.298 140.89,25.068 140.562,25.087 140.562,6.66 141.197,6.66 141.197,6.047 138.998,6.047 138.998,6.66 
	139.674,6.66 139.674,25.11 139.24,25.11 138.733,29.171 138.099,29.171 138.099,29.721 140.213,29.721 142.032,29.721 
	142.032,29.298 "/>
<polygon points="141.657,2.536 141.112,1.246 140.668,1.246 140.309,0.739 140.245,0.739 140.245,0.226 139.97,0.226 139.97,0.739 
	139.907,0.739 139.484,1.268 138.998,1.31 138.701,2.536 138.194,2.536 138.194,3.001 141.937,3.001 141.937,2.536 "/>
<g>
	<line x1="138.553" y1="3.044" x2="139.484" y2="5.983"/>
	<rect x="137.477" y="4.463" transform="matrix(0.3019 0.9533 -0.9533 0.3019 101.3532 -129.3815)" width="3.083" height="0.1"/>
</g>
<g>
	<line x1="141.704" y1="3.012" x2="140.752" y2="6.015"/>
	<rect x="141.179" y="2.939" transform="matrix(0.953 0.303 -0.303 0.953 8.0068 -42.5803)" width="0.1" height="3.15"/>
</g>
<g>
	<line x1="139.505" y1="3.044" x2="139.949" y2="5.983"/>
	<rect x="138.24" y="4.464" transform="matrix(0.1493 0.9888 -0.9888 0.1493 123.3279 -134.3211)" width="2.973" height="0.1"/>
</g>
<g>
	<line x1="140.604" y1="3.044" x2="140.309" y2="5.983"/>
	<rect x="140.406" y="3.037" transform="matrix(0.9947 0.1024 -0.1024 0.9947 1.2005 -14.359)" width="0.1" height="2.954"/>
</g>
<circle cx="156.328" cy="11.8" r="1.983"/>
<path d="M159.933,15.854c0,0-3.035,0.827-4.69-1.863c0,0-2.069-0.932-2.759,2.208c0,0-0.345,3.689-0.207,4
	c0,0,0.345,1.104,1.104,1.449c0,0,1.483,3.69-0.138,7.242l0.069,0.482c0,0,0.621,1.174,1.794,0.312c0,0,2.103-3.448,0.31-8.864
	l-0.069-3.104l0.38-1.655l3.173,1.104l0.965-0.655L159.933,15.854z"/>
<g>
	<rect x="159.082" y="15.71" transform="matrix(0.5025 -0.8646 0.8646 0.5025 65.5665 146.2296)" width="1.536" height="0.862"/>
	<path fill="#FFFFFF" d="M159.852,17.08l-0.82-0.477l0.817-1.403l0.82,0.478L159.852,17.08z M159.151,16.572l0.669,0.389
		l0.729-1.252l-0.669-0.389L159.151,16.572z"/>
</g>
<g>
	<rect x="159.346" y="16.163" transform="matrix(0.7003 -0.7138 0.7138 0.7003 35.9041 119.6764)" width="2.276" height="1.828"/>
	<path fill="#FFFFFF" d="M160.34,18.591l-1.367-1.341l1.656-1.688l1.367,1.342L160.34,18.591z M159.097,17.249l1.242,1.219
		l1.533-1.562l-1.242-1.219L159.097,17.249z"/>
</g>
<g>
	<path d="M159.829,16.577c0,0-3.622,1.172-4.587-1.794c0,0-0.966-1-1.483,0.414c0,0,0.344,3.553,6.242,2.862
		C160.001,18.06,161.174,17.095,159.829,16.577z"/>
	<path fill="#FFFFFF" d="M158.563,18.193L158.563,18.193c-1.298,0-3.066-0.259-4.129-1.492c-0.638-0.739-0.715-1.469-0.718-1.5
		l-0.001-0.01l0.003-0.01c0.19-0.521,0.465-0.785,0.814-0.785c0.392,0,0.728,0.342,0.741,0.357l0.007,0.007l0.003,0.01
		c0.536,1.646,1.91,1.992,2.967,1.992c0,0,0,0,0,0c0.854,0,1.557-0.225,1.564-0.228l0.014-0.004l0.015,0.005
		c0.4,0.153,0.625,0.364,0.667,0.626c0.076,0.467-0.459,0.913-0.482,0.932l-0.01,0.009l-0.013,0.001
		C159.5,18.162,159.015,18.193,158.563,18.193z M153.804,15.203c0.012,0.088,0.116,0.771,0.7,1.445
		c0.575,0.664,1.746,1.456,4.06,1.457l0,0c0.445,0,0.922-0.029,1.42-0.087c0.07-0.062,0.504-0.458,0.442-0.843
		c-0.037-0.225-0.238-0.411-0.598-0.553c-0.108,0.033-0.778,0.226-1.576,0.226h0c-1.085,0-2.493-0.354-3.047-2.041
		c-0.049-0.048-0.346-0.323-0.672-0.323C154.226,14.484,153.98,14.726,153.804,15.203z"/>
</g>
<path fill="#7F7F7F" d="M168.489,22.322l0.888,1.067c0,0,0.254,0.339-0.095,0.909c-0.349,0.571-1.036,2.189-1.036,2.189
	l-0.169,0.476c0,0-0.391,2.58,1.66,0.677l1.66-3.49c0,0,0.391-0.793-0.159-1.246l-0.835-1.059L168.489,22.322z"/>
<path fill="#7F7F7F" d="M166.169,22.102c0,0,0.398,0.305,1.74,0.395v6.585c0,0-0.701,1.525-1.704,0.051L166.169,22.102z"/>
<ellipse fill="#7F7F7F" cx="167.783" cy="10.708" rx="1.818" ry="1.877"/>
<image overflow="visible" width="22" height="29" xlink:href="97FA0CBFFD5F9CF6.png"  transform="matrix(0.24 0 0 0.24 164.3843 15.2305)">
</image>
<path fill="#7F7F7F" d="M174.056,10.583c0,0-0.761,3.109-4.779,2.559c0,0-1.713-0.074-1.501-0.011c0,0-1.882,0.116-2.284,0.476
	l-2.051,1.713c0,0-0.655,0.402,0.021,1.014c0.677,0.613,1.469,1.471,1.469,1.471s1.153,0.835,0.878-0.561l-1.036-1.163
	c0,0-0.381-0.19-0.042-0.381l0.634-0.507c0,0,0.233,2.073,1.882,0.719l0.486-0.275l0.381,0.19c0,0,0.66,0.536,1.23,0.402
	l-1.572,5.863c1.557,0.013,3.414-0.981,3.414-0.981l-1.818-3.4l0.034-1.496c0.262-0.084,0.499-0.321,0.636-0.832
	c0,0,0.127-0.698-0.085-0.909l-0.063-0.148c0,0,1.29,0.021,1.649-0.148c0,0,2.093-0.423,3.045-2.03c0,0,0.486-0.909,0.592-1.227
	C175.177,10.921,175.156,9.525,174.056,10.583z"/>
<polygon points="177.609,29.298 176.89,25.068 176.562,25.087 176.562,6.66 177.197,6.66 177.197,6.047 174.998,6.047 174.998,6.66 
	175.674,6.66 175.674,25.11 175.24,25.11 174.733,29.171 174.099,29.171 174.099,29.721 176.213,29.721 178.032,29.721 
	178.032,29.298 "/>
<polygon points="177.657,2.536 177.112,1.246 176.668,1.246 176.309,0.739 176.245,0.739 176.245,0.226 175.97,0.226 175.97,0.739 
	175.907,0.739 175.484,1.268 174.998,1.31 174.701,2.536 174.194,2.536 174.194,3.001 177.937,3.001 177.937,2.536 "/>
<g>
	<line x1="174.553" y1="3.044" x2="175.484" y2="5.983"/>
	<rect x="173.477" y="4.463" transform="matrix(0.3019 0.9533 -0.9533 0.3019 126.4852 -163.7018)" width="3.083" height="0.1"/>
</g>
<g>
	<line x1="177.704" y1="3.012" x2="176.752" y2="6.015"/>
	<rect x="177.179" y="2.939" transform="matrix(0.953 0.303 -0.303 0.953 9.6992 -53.4884)" width="0.1" height="3.15"/>
</g>
<g>
	<line x1="175.505" y1="3.044" x2="175.949" y2="5.983"/>
	<rect x="174.24" y="4.464" transform="matrix(0.1493 0.9888 -0.9888 0.1493 153.9529 -169.9176)" width="2.973" height="0.1"/>
</g>
<g>
	<line x1="176.604" y1="3.044" x2="176.309" y2="5.983"/>
	<rect x="176.406" y="3.037" transform="matrix(0.9947 0.1024 -0.1024 0.9947 1.3898 -18.0454)" width="0.1" height="2.954"/>
</g>
</svg>
