<?xml version="1.0" encoding="utf-8"?>
<!-- Generator: Adobe Illustrator 16.0.0, SVG Export Plug-In . SVG Version: 6.00 Build 0)  -->
<!DOCTYPE svg PUBLIC "-//W3C//DTD SVG 1.1//EN" "http://www.w3.org/Graphics/SVG/1.1/DTD/svg11.dtd">
<svg version="1.1" id="Layer_1" xmlns="http://www.w3.org/2000/svg" xmlns:xlink="http://www.w3.org/1999/xlink" x="0px" y="0px"
	 width="400px" height="30px" viewBox="0 0 400 30" enable-background="new 0 0 400 30" xml:space="preserve">
<g>
	<path d="M58.309,2.556H34.938v3.836c-0.85,0.285-1.462,1.086-1.462,2.031c0,0.945,0.613,1.746,1.462,2.031v0.621l-1.82,0.027
		c0,0-4.481,3.441-0.059,4.755v11.365c0,0,1.262,1.945,2.317-0.083v-8.085h0.583v8.029c0,0,1.083,2.084,2.417,0v-9.778h19.932V2.556
		z M33.06,13.007v1.283C32.529,13.997,32.323,13.582,33.06,13.007z M57.909,16.906H38.377v-3.879c0,0,5.64-0.333,6.279-1.917
		c0,0,0.069-0.058,0.133-0.143l3.294-1.994l-0.104-0.171l-3.095,1.874c-0.039-0.192-0.342-0.37-1.367-0.343
		c0,0-3.778,1.973-5.39,0.694l-2.789,0.042v-0.522c0.092,0.012,0.186,0.021,0.281,0.021c1.184,0,2.143-0.959,2.143-2.144
		c0-1.183-0.959-2.143-2.143-2.143c-0.095,0-0.188,0.009-0.281,0.021V2.956h22.571V16.906z"/>
	<path d="M49.647,10.609c-0.191,0.248-0.38,0.492-0.562,0.725c-0.453,0.58-0.864,1.098-1.161,1.47
		c-0.267,0.335-0.444,0.552-0.478,0.594l0.019,0.025l0,0l1.509,2.167c0,0,1.08-1.367,2.204-2.87c1.109,1.48,2.161,2.812,2.161,2.812
		l1.493-2.143c0,0,0,0,0,0l0.033-0.048c-0.03-0.037-0.206-0.255-0.477-0.595c-0.408-0.512-1.03-1.297-1.681-2.14
		c0.4-0.583,0.719-1.082,0.871-1.4c0.677-1.413,0.464-2.186,0.232-2.612c-0.213-0.39-1.163-1.987-1.32-2.252
		c-0.001-0.002-0.001-0.004-0.002-0.006c-0.005-0.008-0.011-0.016-0.016-0.024c-0.003-0.005-0.005-0.008-0.005-0.008
		s0.001,0.001,0.001,0.002c-0.201-0.315-0.573-0.593-1.242-0.605c-0.02,0-0.039,0-0.058,0c-0.702-0.001-1.02,0.184-1.213,0.471
		c0.002-0.004,0.004-0.007,0.004-0.007s-0.006,0.009-0.016,0.025c-0.003,0.004-0.006,0.009-0.009,0.013h0v0c0,0,0,0.001-0.001,0.001
		c-0.002,0.004-0.005,0.009-0.008,0.013c-0.198,0.315-1.214,1.935-1.423,2.318c-0.232,0.426-0.445,1.199,0.232,2.612
		C48.892,9.478,49.227,10,49.647,10.609z M52.446,6.338c-0.13,0.425-0.351,0.908-0.711,1.439c-0.165,0.243-0.354,0.511-0.559,0.794
		c-0.221-0.304-0.424-0.593-0.6-0.852c-0.334-0.492-0.542-0.946-0.666-1.354C50.842,6.173,51.919,6.27,52.446,6.338z"/>
</g>
<g>
	<g>
		<path d="M83.132,12.948c-0.613-0.73-1.513-1.149-2.468-1.149c-0.755,0-1.49,0.268-2.069,0.754
			c-0.659,0.554-1.063,1.331-1.138,2.188c-0.074,0.857,0.189,1.692,0.743,2.352c0.613,0.729,1.513,1.148,2.467,1.148
			c0.756,0,1.491-0.268,2.071-0.755C84.098,16.343,84.274,14.308,83.132,12.948z"/>
		<path d="M81.5,7.38l-8.229,6.913l6.913,8.228l8.229-6.912L81.5,7.38z M83.305,18.159c-0.738,0.62-1.675,0.961-2.637,0.961
			c-1.215,0-2.36-0.533-3.142-1.463c-0.705-0.839-1.041-1.901-0.946-2.993c0.095-1.091,0.609-2.08,1.448-2.785
			c0.737-0.619,1.673-0.96,2.635-0.96c1.216,0,2.361,0.533,3.143,1.463C85.26,14.113,85.035,16.705,83.305,18.159z"/>
	</g>
</g>
<path d="M72.938,24.183c0,0.454-0.302,0.822-0.674,0.822h-9.025c-0.372,0-0.674-0.368-0.674-0.822l0,0
	c0-0.454,0.302-0.823,0.674-0.823h9.025C72.636,23.359,72.938,23.729,72.938,24.183L72.938,24.183z"/>
<g>
	<path d="M71.739,23.046"/>
	<path d="M63.764,23.046"/>
	<path d="M70.233,7.209H69.11V5.904c0-0.75-0.608-1.359-1.359-1.359c-0.751,0-1.359,0.608-1.359,1.359v1.305H65.27
		c-0.802,0-1.453,0.728-1.453,1.626V22.44h7.869V8.835C71.686,7.937,71.036,7.209,70.233,7.209z"/>
</g>
<path d="M116.149,8.303h-8.337l2.758-4.955l-0.961-0.535l-2.871,5.158l-3.468-5.415l-0.927,0.593l3.3,5.153H94.351
	c-0.83,0-1.503,0.673-1.503,1.503v14.094c0,0.83,0.673,1.503,1.503,1.503h21.799c0.83,0,1.503-0.673,1.503-1.503V9.806
	C117.652,8.976,116.979,8.303,116.149,8.303z M111.075,21.394c0,0.83-0.673,1.504-1.503,1.504H96.543
	c-0.83,0-1.503-0.674-1.503-1.504v-9.145c0-0.831,0.673-1.504,1.503-1.504h13.029c0.83,0,1.503,0.673,1.503,1.504V21.394z
	 M113.644,20.924h-0.626v-0.626h0.626V20.924z M113.644,19.766h-0.626v-0.627h0.626V19.766z M113.644,18.606h-0.626V17.98h0.626
	V18.606z M114.708,20.924h-0.626v-0.626h0.626V20.924z M114.708,19.766h-0.626v-0.627h0.626V19.766z M114.708,18.606h-0.626V17.98
	h0.626V18.606z M114.051,14.504c-0.605,0-1.096-0.491-1.096-1.097s0.491-1.096,1.096-1.096s1.096,0.49,1.096,1.096
	S114.656,14.504,114.051,14.504z M115.711,20.924h-0.626v-0.626h0.626V20.924z M115.711,19.766h-0.626v-0.627h0.626V19.766z
	 M115.711,18.606h-0.626V17.98h0.626V18.606z"/>
<path d="M127.62,21.256c-1.573,1.574-1.278,4.418,0.295,5.992c1.573,1.572,4.5,1.949,6.073,0.375l4.804-4.805l-6.368-6.367"/>
<path fill="#F48120" d="M143.999,17.613c1.573-1.574,1.197-4.5-0.376-6.073c-1.573-1.573-4.419-1.869-5.992-0.295l-5.206,5.207
	l6.368,6.367L143.999,17.613z"/>
<g>
	<path d="M124.843,2.128v7.891h-1.018V2.128H124.843z"/>
	<path d="M126.482,8.778c0.457,0.281,1.124,0.515,1.827,0.515c1.042,0,1.65-0.55,1.65-1.346c0-0.738-0.421-1.159-1.487-1.569
		c-1.288-0.457-2.084-1.124-2.084-2.236c0-1.229,1.019-2.142,2.552-2.142c0.808,0,1.394,0.187,1.745,0.386l-0.281,0.831
		c-0.257-0.14-0.784-0.375-1.498-0.375c-1.077,0-1.487,0.644-1.487,1.183c0,0.737,0.48,1.1,1.569,1.522
		c1.335,0.515,2.014,1.159,2.014,2.318c0,1.218-0.901,2.271-2.763,2.271c-0.761,0-1.592-0.222-2.014-0.503L126.482,8.778z"/>
	<path d="M133.894,2.995h-2.4V2.128h5.842v0.867h-2.412v7.024h-1.03V2.995z"/>
</g>
<path d="M190.402,20.912c-1.574,1.573-1.278,4.419,0.295,5.992s4.5,1.949,6.073,0.375l4.804-4.804l-6.367-6.368"/>
<path fill="#F48120" d="M206.781,17.27c1.573-1.573,1.197-4.5-0.376-6.072c-1.573-1.573-4.419-1.869-5.992-0.296l-5.206,5.206
	l6.367,6.368L206.781,17.27z"/>
<g>
	<path d="M186.525,9.676l-2.576-7.891h1.101l1.229,3.887c0.339,1.065,0.632,2.025,0.843,2.95h0.023
		c0.223-0.913,0.55-1.908,0.902-2.938l1.334-3.898h1.089l-2.822,7.891H186.525z"/>
	<path d="M192.344,1.785v7.891h-1.019V1.785H192.344z"/>
	<path d="M195.142,1.785v3.302h3.817V1.785h1.03v7.891h-1.03V5.977h-3.817v3.699h-1.018V1.785H195.142z"/>
</g>
<g>
	<path d="M155.555,29.536c-0.026-0.053-0.061-0.117-0.101-0.192c0.385-0.228,2.118-1.251,2.456-1.451
		c0.12-0.071,0.233-0.113,0.329-0.169c0.094-0.052,0.186-0.146,0.182-0.283c-0.002-0.114-0.051-0.242-0.151-0.423
		c0.197-0.121,0.749-0.457,1.235-0.744c0.302-0.178,0.579-0.338,0.725-0.412c0.195-0.102,0.589-0.14,1.033-0.167
		c0.445-0.029,0.942-0.054,1.373-0.156c0.849-0.205,3.429-1.032,4.162-1.463c0.721-0.427,1.506-1.149,1.697-1.336
		c0.078-0.079,0.76-0.595,1.442-1.103c0.685-0.511,1.383-1.023,1.523-1.125c0.28-0.202,2.408-1.717,2.642-1.854
		c0.251-0.147,0.404-0.276,0.577-0.415c0.172-0.139,1.452-1.151,1.891-1.447c0.451-0.303,0.593-0.464,0.733-0.581
		c0.055-0.049,0.533-0.333,0.947-0.703c0.411-0.371,0.804-0.847,0.645-1.349c-0.032-0.097-0.073-0.187-0.122-0.269
		c-0.202-0.344-0.54-0.542-0.933-0.579c-0.393-0.038-0.843,0.077-1.293,0.344c-0.979,0.578-1.48,0.838-1.482,0.839
		c-0.009,0.006-2.066,1.219-2.381,1.481c-0.084,0.072-0.38,0.257-0.736,0.466c-0.715,0.423-1.689,0.966-1.892,1.085
		c-0.095,0.057-0.202,0.107-0.284,0.134c-0.018,0.006-0.036,0.011-0.051,0.015c0.017-0.031,0.045-0.075,0.089-0.129
		c0.351-0.436,0.561-0.975,0.625-1.506c0.018-0.144-0.03-0.289-0.111-0.427c-0.143-0.24-0.393-0.468-0.667-0.631
		c-0.275-0.161-0.572-0.262-0.829-0.214c-0.486,0.096-0.83,0.159-1.105,0.287c-0.016-0.056-0.042-0.11-0.074-0.164
		c-0.142-0.238-0.412-0.477-0.686-0.666c-0.278-0.188-0.543-0.325-0.726-0.339c-0.215-0.008-0.519,0.127-0.794,0.258
		c-0.156,0.077-0.297,0.153-0.389,0.205c-0.011-0.029-0.025-0.058-0.042-0.085c-0.246-0.402-1.013-0.755-1.862-0.587
		c-0.46,0.095-0.86,0.292-1.169,0.475c-0.25,0.147-0.443,0.287-0.551,0.351c-0.021,0.013-0.039,0.022-0.05,0.027
		c-0.005,0.002-0.009,0.004-0.012,0.005h0c-0.121,0.01-0.291,0.065-0.419,0.139c-0.057,0.035-0.106,0.07-0.139,0.132
		c-0.004,0.018-0.12,0.141-0.222,0.232c-0.084,0.078-0.165,0.147-0.192,0.171c-0.049,0.022-0.235,0.109-0.498,0.265
		c-0.466,0.275-1.173,0.767-1.768,1.494c-0.262,0.321-0.449,0.696-0.581,1.006c-0.128,0.304-0.214,0.563-0.236,0.592
		c-0.007,0.013-0.084,0.1-0.184,0.201c-0.151,0.156-0.365,0.367-0.548,0.544c-0.178,0.173-0.347,0.325-0.352,0.325
		c-0.071,0.042-1.378,0.813-1.702,1.005c-0.105-0.146-0.348-0.489-0.431-0.631c-0.067-0.111-0.216-0.282-0.433-0.393
		c-0.215-0.112-0.508-0.151-0.807,0.028c-0.478,0.282-1.96,1.157-2.318,1.369"/>
	<polygon fill="#FFFFFF" points="166.316,19.398 166.316,19.398 166.316,19.398 	"/>
</g>
<ellipse fill="#DF1800" stroke="#DF1800" cx="177.357" cy="14.548" rx="0.792" ry="0.938"/>
<g>
	<polyline points="158.155,0.463 157.539,1.373 173.767,12.363 174.381,11.454 	"/>
</g>
<rect x="173.849" y="12.093" transform="matrix(0.8285 0.5599 -0.5599 0.8285 37.1129 -95.9103)" fill="#DF1800" width="2.618" height="1.1"/>
<g>
	<path d="M221.504,18.795c0.09,0.826,0.896,1.52,1.73,1.429c1.39-0.142,1.711-1.776,1.833-2.392c0.057-0.295,0.343-0.4,0.805-0.537
		c0.188-0.056,0.382-0.114,0.55-0.2c1.211-0.634,1.672-1.949,1.173-3.354l-0.065-0.183c-0.282-0.801-0.424-1.203-1.242-1.753
		c-0.129-0.087-0.279-0.18-0.439-0.28c-0.611-0.38-1.371-0.854-1.639-1.374c-0.155-0.304-0.104-0.333,0.179-0.498l0.099-0.058
		c0.564-0.346,0.639-0.954,0.706-1.49c0.066-0.53,0.123-0.988,0.575-1.224c0.466-0.242,1.013-0.37,1.583-0.37
		c1.119,0,2.178,0.476,2.83,1.273c0.618,0.753,0.56,1.944,0.42,3.009c-0.643,4.931-2.917,7.343-3.888,8.372
		c-0.436,0.462-0.654,0.694-0.487,0.95c0.061,0.094,0.163,0.147,0.281,0.147c0.728,0,3.272-2.822,3.988-4.247
		c0.425-0.846,0.573-1.766,0.716-2.655l0.033-0.207c0.033-0.203,0.07-0.413,0.108-0.631c0.393-2.236,0.929-5.298-1.619-6.645
		c-0.604-0.317-1.428-0.516-2.055-0.487c-1.404,0.062-2.931,0.847-3.89,2c-0.743,0.896-1.062,1.897-0.919,2.9
		c0.163,1.153,0.991,1.832,1.791,2.489c0.475,0.39,0.925,0.758,1.24,1.217c0.149,0.219,0.523,1.053,0.46,1.415
		c-0.036-0.078-0.073-0.181-0.092-0.235c-0.025-0.07-0.047-0.131-0.066-0.17c-0.521-1.091-2.422-1.573-2.534-1.573
		c-0.079,0-0.154,0.038-0.201,0.102c-0.047,0.064-0.062,0.147-0.037,0.223c0.39,1.231-0.064,2.072-1.006,3.137
		C222.002,17.376,221.421,18.033,221.504,18.795z"/>
	<path d="M233.784,4.804c-1.267-1.821-3.353-2.865-5.723-2.865c-1.223,0-2.507,0.282-3.712,0.816
		c-2.016,0.894-4.506,3.956-4.675,5.378c-0.005,0.038-0.003,0.082,0.01,0.14c0.081,0.393,0.348,0.851,0.831,0.851
		c0.104,0,0.206-0.022,0.302-0.065c0.21-0.093,0.372-0.296,0.958-1.058c0.79-1.024,2.11-2.738,3.154-3.273
		c0.865-0.444,1.742-0.67,2.605-0.67c2.512,0,4.216,1.86,4.503,2.637c0.465,1.248,1.646,7.161-1.556,11.175
		c-0.45,0.564-0.993,1.069-1.71,1.591c-0.94,0.682-1.759,1.328-2.253,2.322c-0.102,0.201-0.195,0.405-0.29,0.611
		c-0.312,0.68-0.606,1.321-1.126,1.791c-0.637,0.575-1.367,0.909-2.054,0.942c-1.177,0.045-2.329-0.593-2.965-1.651
		c-0.323-0.538-0.693-1.353-0.76-2.024c-0.064-0.636-0.052-1.318-0.038-1.982c0.036-0.84,0.092-2.117,0.095-2.169
		c0.026-0.156-0.009-0.507-0.219-0.783c-0.15-0.197-0.358-0.315-0.613-0.34l-0.078-0.005c-0.306,0-0.699,0.147-0.837,0.844
		l-0.008,0.043c-0.232,0.859-1.286,5.282,0.829,8.047c1.105,1.444,2.861,2.178,5.217,2.178c1.014,0,2.182-0.479,3.047-1.251
		c0.727-0.648,1.167-1.764,1.527-2.673c0.159-0.402,0.34-0.857,0.457-0.996c0.17-0.202,0.811-0.705,1.428-1.192
		c1.009-0.796,2.152-1.696,2.523-2.247c0.484-0.718,0.77-1.548,1.048-2.358l0.03-0.089c0.073-0.21,0.145-0.417,0.22-0.62
		C235.641,11.314,235.582,7.391,233.784,4.804z"/>
</g>
<path d="M252.117,17.024l0.858,0.613c-0.245,0.568-0.414,1.172-0.499,1.794l-1.051,0.082c-0.049,0.004-0.097,0.012-0.143,0.024
	c-0.38,0.098-0.646,0.457-0.615,0.861l0.101,1.27c0.035,0.454,0.432,0.793,0.885,0.757l1.054-0.082
	c0.183,0.611,0.444,1.179,0.77,1.695l-0.752,0.738c-0.325,0.319-0.33,0.841-0.011,1.165l0.893,0.909
	c0.214,0.217,0.519,0.291,0.794,0.22c0.136-0.035,0.264-0.104,0.371-0.209l0.753-0.74c0.521,0.342,1.085,0.611,1.68,0.803
	l-0.101,1.05c-0.045,0.453,0.287,0.855,0.74,0.899l1.268,0.122c0.099,0.01,0.194,0.002,0.285-0.021
	c0.326-0.084,0.58-0.364,0.614-0.719l0.102-1.051c0.305-0.036,0.611-0.093,0.917-0.172c0.306-0.078,0.601-0.178,0.886-0.293
	l0.597,0.869c0.202,0.294,0.56,0.416,0.886,0.332c0.091-0.023,0.179-0.063,0.261-0.119l1.049-0.721
	c0.376-0.258,0.471-0.771,0.213-1.146l-0.597-0.87c0.428-0.455,0.791-0.965,1.081-1.516l1.017,0.282
	c0.145,0.041,0.291,0.04,0.426,0.005c0.275-0.071,0.507-0.284,0.589-0.578l0.341-1.227c0.122-0.438-0.135-0.893-0.573-1.015
	l-1.016-0.282c0.034-0.609-0.012-1.232-0.147-1.855l0.961-0.438c0.414-0.188,0.597-0.678,0.408-1.092l-0.527-1.159
	c-0.169-0.369-0.575-0.555-0.955-0.456c-0.046,0.012-0.092,0.027-0.137,0.048l-0.959,0.438c-0.376-0.504-0.815-0.949-1.306-1.328
	l0.455-0.953c0.196-0.41,0.021-0.902-0.389-1.098l-1.149-0.549c-0.183-0.087-0.38-0.102-0.561-0.055
	c-0.228,0.06-0.429,0.215-0.538,0.443l-0.454,0.951c-0.599-0.142-1.222-0.204-1.854-0.179l-0.264-1.021
	c-0.114-0.44-0.563-0.705-1.004-0.592l-1.233,0.319c-0.44,0.113-0.705,0.562-0.592,1.004l0.264,1.021
	c-0.564,0.284-1.08,0.641-1.535,1.055l-0.857-0.613c-0.207-0.147-0.458-0.186-0.686-0.127c-0.181,0.047-0.347,0.155-0.464,0.319
	l-0.74,1.036C251.66,16.245,251.747,16.76,252.117,17.024z M258.035,15.438c2.714-0.7,5.492,0.938,6.193,3.652
	c0.7,2.714-0.937,5.492-3.651,6.192c-2.714,0.701-5.493-0.937-6.193-3.65C253.683,18.919,255.32,16.14,258.035,15.438z"/>
<path d="M244.855,9.512l0.85-0.043c0.134,0.495,0.332,0.959,0.583,1.382l-0.621,0.578c-0.269,0.25-0.284,0.67-0.034,0.938
	l0.699,0.751c0.167,0.181,0.411,0.246,0.635,0.195c0.11-0.025,0.215-0.079,0.303-0.161l0.623-0.579
	c0.411,0.286,0.861,0.517,1.336,0.683l-0.104,0.844c-0.046,0.364,0.213,0.695,0.577,0.741l1.018,0.126
	c0.079,0.01,0.157,0.005,0.23-0.012c0.265-0.061,0.475-0.281,0.511-0.565l0.104-0.844c0.246-0.022,0.494-0.062,0.742-0.119
	c0.248-0.057,0.488-0.13,0.72-0.217l0.462,0.714c0.156,0.24,0.442,0.347,0.706,0.286c0.073-0.018,0.146-0.047,0.212-0.09
	l0.861-0.558c0.309-0.2,0.396-0.611,0.196-0.919l-0.462-0.713c0.354-0.357,0.659-0.761,0.904-1.197l0.812,0.249
	c0.116,0.036,0.233,0.038,0.344,0.013c0.224-0.051,0.414-0.217,0.486-0.452l0.301-0.98c0.107-0.351-0.089-0.722-0.439-0.83
	l-0.812-0.249c0.042-0.49,0.019-0.993-0.078-1.498l0.784-0.332c0.338-0.143,0.495-0.532,0.353-0.87l-0.399-0.945
	c-0.128-0.301-0.451-0.459-0.76-0.389c-0.037,0.009-0.074,0.021-0.11,0.036l-0.782,0.331c-0.292-0.414-0.637-0.782-1.023-1.098
	l0.388-0.757c0.166-0.326,0.037-0.726-0.289-0.893l-0.914-0.467c-0.145-0.074-0.304-0.09-0.45-0.056
	c-0.185,0.042-0.351,0.163-0.443,0.345l-0.387,0.756c-0.479-0.127-0.979-0.191-1.489-0.185l-0.189-0.828
	c-0.082-0.357-0.438-0.581-0.796-0.499l-1,0.229c-0.357,0.082-0.58,0.438-0.498,0.796l0.189,0.828
	c-0.461,0.216-0.884,0.492-1.259,0.816l-0.679-0.512c-0.162-0.124-0.364-0.16-0.549-0.117c-0.146,0.033-0.283,0.117-0.381,0.247
	l-0.618,0.818c-0.221,0.293-0.163,0.709,0.129,0.93l0.679,0.513c-0.21,0.453-0.359,0.935-0.441,1.434l-0.848,0.044
	c-0.04,0.002-0.078,0.008-0.115,0.016c-0.309,0.071-0.53,0.354-0.514,0.682l0.052,1.024C244.178,9.249,244.489,9.53,244.855,9.512z
	 M250.147,4.023c2.201-0.505,4.403,0.874,4.909,3.076c0.506,2.201-0.874,4.404-3.076,4.909c-2.201,0.506-4.403-0.874-4.909-3.076
	C246.566,6.73,247.946,4.528,250.147,4.023z"/>
<polygon points="296.631,28.006 272.061,28.006 272.061,2.532 273.014,2.532 273.014,27.055 296.631,27.055 "/>
<rect x="274.843" y="20.341" width="3.016" height="5.189"/>
<rect x="283.991" y="16.197" width="3.016" height="9.333"/>
<rect x="288.565" y="13.96" width="3.015" height="11.57"/>
<rect x="293.14" y="7.817" width="3.015" height="17.713"/>
<rect x="279.417" y="17.149" width="3.016" height="8.381"/>
<path fill="none" stroke="#3E3E47" stroke-width="3" d="M296.06,5.77"/>
<path fill="#F48120" d="M297.541,7.446l-1.76-5.152l-2.462,4.855l1.655-0.57c-0.582,3.768-2.074,8.686-5.8,12.426
	c-2.897,2.907-6.835,3.987-9.629,4.382c-3.054,0.431-5.449,0.159-5.477,0.155l0,0l0,0h-0.001l-0.054,0.462l-0.058,0.484
	c0.057,0.007,0.839,0.097,2.072,0.097c0.973,0,2.226-0.056,3.623-0.252c5.338-0.748,8.491-2.945,10.197-4.656
	c3.937-3.951,5.488-9.125,6.082-13.052L297.541,7.446z"/>
<g>
	<path d="M23.958,9.003v18.666H5.292V2.231h11.876L23.958,9.003z M16.326,9.846V3.073H6.134v23.754h16.981V9.846H16.326z
		 M8.678,6.459V5.617h5.088v0.842H8.678z M8.678,9.846V9.003h5.088v0.843H8.678z M8.678,13.248v-0.842h11.877v0.842H8.678z
		 M8.678,16.651V15.81h11.877v0.842H8.678z M8.678,20.038v-0.843h11.877v0.843H8.678z M8.678,23.424v-0.843h11.877v0.843H8.678z
		 M17.168,3.417v5.586h5.601L17.168,3.417z"/>
</g>
</svg>
